ply
format ascii 1.0
element vertex 32
property double x
property double y
property double z
element face 60
property list uchar int vertex_indices
end_header
8.4624e-08 -0.115301 -0.25 
8.4624e-08 0.384699 -1.88394e-07 
0.0487726 -0.115301 -0.245196 
0.0956708 -0.115301 -0.23097 
0.138892 -0.115301 -0.207867 
0.176777 -0.115301 -0.176777 
0.207867 -0.115301 -0.138892 
0.23097 -0.115301 -0.0956709 
0.245196 -0.115301 -0.0487727 
0.25 -0.115301 -1.88394e-07 
0.245196 -0.115301 0.0487723 
0.23097 -0.115301 0.0956706 
0.207867 -0.115301 0.138893 
0.176777 -0.115301 0.176777 
0.138892 -0.115301 0.207868 
0.0956708 -0.115301 0.23097 
0.0487726 -0.115301 0.245196 
8.4624e-08 -0.115301 0.25 
-0.0487727 -0.115301 0.245196 
-0.0956709 -0.115301 0.23097 
-0.138893 -0.115301 0.207867 
-0.176777 -0.115301 0.176777 
-0.207868 -0.115301 0.138893 
-0.23097 -0.115301 0.0956706 
-0.245196 -0.115301 0.0487721 
-0.25 -0.115301 -4.38394e-07 
-0.245196 -0.115301 -0.0487729 
-0.23097 -0.115301 -0.0956712 
-0.207867 -0.115301 -0.138893 
-0.176777 -0.115301 -0.176777 
-0.118299 -0.114862 -0.221334 
-0.0487722 -0.115301 -0.245196 
3 0 1 2 
3 2 1 3 
3 3 1 4 
3 4 1 5 
3 5 1 6 
3 6 1 7 
3 7 1 8 
3 8 1 9 
3 9 1 10 
3 10 1 11 
3 11 1 12 
3 12 1 13 
3 13 1 14 
3 14 1 15 
3 15 1 16 
3 16 1 17 
3 17 1 18 
3 18 1 19 
3 19 1 20 
3 20 1 21 
3 21 1 22 
3 22 1 23 
3 23 1 24 
3 24 1 25 
3 25 1 26 
3 26 1 27 
3 27 1 28 
3 28 1 29 
3 29 1 30 
3 30 1 31 
3 31 1 0 
3 8 16 24 
3 31 0 2 
3 2 3 4 
3 4 5 6 
3 6 7 4 
3 7 8 4 
3 8 9 10 
3 10 11 8 
3 11 12 8 
3 12 13 16 
3 13 14 16 
3 14 15 16 
3 16 17 18 
3 18 19 20 
3 20 21 22 
3 22 23 24 
3 24 25 26 
3 26 27 28 
3 28 29 31 
3 29 30 31 
3 31 2 4 
3 16 18 24 
3 18 20 24 
3 20 22 24 
3 24 26 31 
3 26 28 31 
3 31 4 8 
3 8 12 16 
3 31 8 24 
