ply
format ascii 1.0
element vertex 300
property double x
property double y
property double z
element face 600
property list uchar int vertex_indices
end_header
-0.0734174 -0.00493603 -0.0511958 
-0.0603895 -0.0229191 -0.0411917 
-0.0842757 -0.00494872 -0.032341 
-0.0692901 -0.0226591 -0.0263301 
-0.0742875 -0.0224445 -0.00871958 
-0.0631377 -0.0158955 -0.022745 
-0.0773118 0.000446014 -0.0283915 
-0.0898514 -0.00525913 -0.0104948 
-0.0674892 -0.0156318 -0.0075938 
-0.0760264 -0.0202316 0.0103697 
-0.0646178 -0.017065 0.0158935 
-0.0581017 -0.00507041 -0.066357 
-0.0182905 -0.00519569 -0.0827011 
-0.0395546 -0.00499437 -0.0771127 
-0.033212 -0.0227524 -0.0622116 
-0.0157646 -0.0228859 -0.0667622 
-0.0355829 0.000398209 -0.0701657 
-0.0147242 -0.0157791 -0.0602611 
-0.0484001 -0.0226196 -0.0535755 
-0.0532199 0.000314883 -0.0598653 
-0.0546635 -0.0161013 -0.0367685 
-0.0371615 -0.0159941 -0.0525586 
-0.03579 -0.0402197 -0.0307262 
-0.0189325 -0.0419379 -0.0380319 
-0.00926391 -0.038532 -0.0442369 
-0.0188327 -0.0284117 -0.0400509 
-0.0373431 -0.0281118 -0.0297437 
0.00463071 -0.00558589 -0.0822942 
-0.0164844 4.63817e-05 -0.0749281 
0.00935996 -0.0234991 -0.0647728 
0.00314789 0.000756089 -0.0754184 
0.0107106 -0.0162241 -0.0578995 
0.0252718 -0.005486 -0.0768317 
0.00549989 -0.0289534 -0.0392786 
0.0100585 -0.0364221 -0.0438604 
0.0323541 -0.0231313 -0.05424 
0.0295641 -0.0165512 -0.0473288 
-0.0297671 -0.0535947 -0.0226301 
-0.0211497 -0.057171 -0.0217113 
-0.0364667 -0.0570408 -0.00921393 
-0.0296541 -0.0560448 -0.00350339 
-0.0361231 -0.0569674 0.010413 
-0.043846 -0.0436869 0.00932454 
-0.0179937 -0.0501502 0.000246419 
-0.046604 -0.0410581 -0.0104943 
-0.0672548 0.000424492 -0.0459021 
-0.0480778 -0.0282517 -0.00906751 
-0.0194043 -0.0359541 -0.0172386 
-0.0478221 -0.0282902 0.0105322 
-0.0294334 -0.0354803 0.00172194 
-0.0156596 -0.0557555 -0.0303437 
-0.000665509 -0.0561593 -0.030614 
-0.000238792 -0.0570883 -0.0246269 
0.00300102 -0.0468034 -0.034451 
0.0157472 -0.0562226 -0.0223649 
0.0202 -0.0427998 -0.0273731 
-0.00171237 -0.0494892 -0.00806581 
0.018978 -0.0570919 -0.00727487 
0.0049281 -0.0359714 -0.0182672 
0.0260256 -0.0299683 -0.0210894 
-0.00652803 -0.0383562 -0.000765129 
-0.00310164 -0.0487678 0.00348883 
0.0127797 -0.0367407 0.00295291 
-0.0437854 0.0162185 -0.0879868 
-0.0698489 0.038137 -0.0796133 
-0.065101 0.0400924 -0.0823695 
-0.0464228 0.0395612 -0.0935399 
-0.0204656 0.0159269 -0.0941813 
-0.0398911 0.0196693 -0.0802458 
-0.0421677 0.0405585 -0.0860078 
-0.0189988 0.039876 -0.091993 
-0.0175676 0.019435 -0.086079 
-0.022019 0.0387825 -0.100243 
-0.0527254 0.0425018 -0.0847628 
-0.0268401 0.0422679 -0.0956286 
0.00781866 0.0151848 -0.0934561 
0.00677265 0.0368331 -0.0999177 
0.0055645 0.0198377 -0.0859816 
0.031379 0.0390105 -0.0935478 
0.00542657 0.0413735 -0.0926166 
0.0296431 0.0155174 -0.0875993 
0.0273665 0.0410509 -0.0866277 
0.00628139 0.0418421 -0.0982877 
0.0366569 0.0423948 -0.0879852 
-0.0826597 0.0157511 -0.0578839 
-0.065224 0.0159307 -0.0755275 
-0.0787242 0.0409196 -0.068837 
-0.0878861 0.0391152 -0.0614846 
-0.0791463 0.0416941 -0.0593495 
-0.0760017 0.0199251 -0.052684 
-0.0949321 0.0163482 -0.0370819 
-0.100949 0.0394104 -0.0386346 
-0.0596662 0.0195867 -0.0688214 
-0.0925967 0.0404402 -0.036039 
-0.0708155 0.042636 -0.069917 
-0.0623438 0.0404577 -0.0743976 
-0.0915943 0.0424314 -0.0485863 
-0.101187 0.0157045 -0.0131176 
-0.0875242 0.0198818 -0.0325348 
-0.107218 0.0387084 -0.0142292 
-0.0991897 0.0403193 -0.0120955 
-0.082419 0.000534537 -0.00926403 
-0.0932304 0.0196428 -0.0103788 
-0.0899569 -0.00487704 0.0107008 
-0.0999966 0.0138396 0.0135456 
-0.107269 0.0382389 0.0137068 
-0.0821225 0.000371302 0.0102959 
-0.0932998 0.0200856 0.011923 
-0.103166 0.0422125 -0.0183681 
0.0209671 0.0010337 -0.070899 
0.0434163 -0.00606829 -0.0657492 
0.0384557 0.00067551 -0.0607662 
0.0403465 -0.0163651 -0.0368374 
0.058271 -0.00542271 -0.0516748 
0.0464656 -0.0230159 -0.0403993 
0.0532562 0.00086537 -0.0464062 
0.0704213 -0.00441314 -0.0326798 
0.0303545 -0.0425429 -0.0105696 
0.0251349 -0.0531058 -0.00711939 
0.021142 -0.0568397 0.0131722 
0.0513905 -0.0162311 -0.0166715 
0.0558137 -0.0218653 -0.0265872 
0.0609578 -0.0217021 -0.00987192 
0.0630261 0.000648097 -0.0292982 
0.0590542 -0.0251294 -0.00489141 
0.0343654 -0.0292013 -0.000254125 
0.0355089 -0.0396945 0.00533552 
0.068018 5.48055e-05 -0.00922512 
0.0606086 -0.0234557 0.00763747 
0.0537556 -0.0154232 0.00801543 
0.0735273 -0.00881025 -0.00787016 
0.0797274 -0.0167969 -0.00776174 
0.0888106 -0.00594804 -0.00602065 
0.0731008 -0.00946019 0.0083828 
0.0930291 -0.0149654 0.00732385 
0.0986678 -0.0154146 -0.00630985 
0.122711 -0.0110351 -0.00935131 
0.0952702 -0.00583989 0.00643918 
0.11603 -0.0171861 -0.00648385 
0.120873 -0.00754248 -0.00666234 
0.120299 -0.0171503 0.00743735 
0.12814 -0.0135891 -0.00585658 
0.119421 -0.00789913 0.00717015 
0.138144 -0.00247464 -0.00760491 
0.134892 -0.00561612 0.0089282 
0.0259732 0.0231915 -0.0816497 
0.0540003 0.0393483 -0.0807121 
0.0482634 0.0410146 -0.0748837 
0.0448256 0.0198078 -0.0695617 
0.051553 0.0161177 -0.0750676 
0.0691725 0.0162535 -0.0573882 
0.0614689 0.0201044 -0.05333 
0.0662266 0.0404659 -0.0569485 
0.0659474 0.0425853 -0.0668192 
0.0792871 0.0425973 -0.0452102 
0.0736396 0.0391755 -0.0616709 
0.0812055 0.0163169 -0.0364769 
0.0728425 0.0198979 -0.0337376 
0.0786389 0.0403716 -0.0353228 
0.0873065 0.0394069 -0.0369406 
0.0790651 0.019756 -0.0106596 
0.088614 0.0180101 -0.00988878 
0.0852909 0.040777 -0.0113614 
0.0932257 0.037807 -0.0140171 
0.068139 0.000329214 0.0103652 
0.0794769 0.0204394 0.0113976 
0.0902414 0.0270339 -0.00646467 
0.0879123 0.0172566 0.0100608 
0.0988828 0.0212029 -0.00638105 
0.0972417 0.0199401 0.00649101 
0.0855474 0.0411727 0.0139748 
0.0893743 0.0226391 0.0098424 
0.106986 0.0337021 -0.00954518 
0.106481 0.0388954 -0.00650853 
0.0904561 0.02711 0.00704835 
0.107195 0.0387113 0.00804591 
0.0910527 0.04194 -0.0133527 
0.0868038 0.0421044 0.0330603 
0.109454 0.0293453 -0.00687521 
0.119747 0.0297606 -0.00603727 
0.107855 0.0287738 0.00794018 
0.127662 0.0355057 -0.00812739 
0.131957 0.0235997 -0.00883902 
0.118636 0.030152 0.00675405 
0.132462 0.00452756 -0.00916284 
0.129089 0.000568212 0.00690159 
0.13174 0.0172766 -0.00555952 
0.131804 0.0193442 0.00701964 
0.141247 0.0112305 -0.00450013 
0.13736 0.0251971 -0.0079102 
0.140204 0.00568539 0.00713154 
0.140139 0.0189606 0.00669715 
0.134426 0.0300654 0.00841064 
0.1221 0.0399385 0.000281693 
-0.0841432 -0.00488174 0.032652 
-0.0696782 -0.0225891 0.0255063 
-0.0776172 0.000462995 0.0276132 
-0.0728079 -0.00574067 0.0508875 
-0.0241616 -0.0560821 0.0143637 
-0.0280876 -0.0554085 0.0244838 
-0.035967 -0.0437831 0.0241322 
-0.0237064 -0.0467511 0.0319603 
-0.0372236 -0.0286884 0.0288535 
-0.0226742 -0.0355349 0.0170871 
-0.061071 -0.0223729 0.0410873 
-0.0483289 -0.0228588 0.053079 
-0.0556196 -0.0152308 0.0373696 
-0.0278991 -0.038796 0.0385504 
-0.00987606 -0.0292412 0.0417201 
-0.0388824 -0.0165459 0.0512146 
-0.0107646 -0.0570217 0.0266984 
0.0093583 -0.0561259 0.0165578 
0.0061452 -0.0564483 0.0285584 
-0.01249 -0.0554528 0.0310973 
0.00765342 -0.0431072 0.0353123 
0.0193922 -0.0429386 0.0277912 
-0.00567673 -0.0367706 0.0194128 
0.0152375 -0.0284769 0.0348372 
-0.0067323 -0.0413653 0.0402867 
-0.016217 -0.0228387 0.0666668 
0.0187038 -0.0233921 0.0616104 
-0.0570221 -0.0056186 0.0665293 
-0.0530818 0.00105215 0.0607277 
-0.0393181 -0.00480915 0.077373 
-0.033506 -0.0223007 0.0624538 
-0.0354782 -0.000680463 0.0693117 
-0.00884554 -0.0173196 0.0597442 
-0.0189653 -0.00476573 0.082881 
0.0033141 -0.0240454 0.0648113 
0.00272745 -0.00020618 0.0748563 
0.0156727 -0.01563 0.0564659 
0.0223324 0.000282676 0.0698769 
-0.0159524 0.000190856 0.0752044 
0.00570478 -0.0056848 0.0819213 
0.0266324 -0.00504409 0.0764625 
-0.0994553 0.0413399 0.0136885 
-0.0946601 0.0157257 0.0367728 
-0.0941399 0.0406329 0.0327296 
-0.0997054 0.0390089 0.0408964 
-0.0867656 0.0195348 0.0340961 
-0.0813435 0.0405074 0.0558838 
-0.067695 0.00041996 0.0454599 
-0.0826333 0.016168 0.0581187 
-0.0760932 0.0193134 0.0522319 
-0.104843 0.0420019 0.0145739 
-0.0915018 0.0429625 0.049845 
-0.08745 0.0390635 0.0617708 
-0.0686207 0.0391765 0.0807831 
-0.059804 0.0194842 0.0686872 
-0.0643275 0.0158793 0.0760655 
-0.0580222 0.0428644 0.0835706 
-0.043508 0.0161158 0.0882047 
-0.0627144 0.0402742 0.0741783 
-0.0466591 0.0388264 0.0934923 
-0.0394789 0.0187516 0.0799311 
-0.0176641 0.0193056 0.0859455 
-0.0205276 0.0161518 0.094313 
-0.0415662 0.0402399 0.0860035 
0.00502587 0.0198035 0.0862298 
0.0251022 0.0203596 0.081078 
-0.0231797 0.0395028 0.100328 
-0.0192523 0.0405791 0.0921589 
-0.0253352 0.0424401 0.0952338 
0.00670638 0.0168989 0.0942521 
0.00809572 0.0410038 0.0923579 
0.0289565 0.0166376 0.0883987 
0.00767152 0.0382433 0.10015 
0.0332039 0.0381434 0.0929786 
0.0150254 0.0420486 0.0962072 
0.0282814 -0.0429045 0.0150412 
0.0298435 -0.0275877 0.022328 
0.0450679 -0.0167377 0.0294827 
0.0549737 -0.0228497 0.0263136 
0.0634834 0.000690528 0.0287212 
0.0458761 -0.0232552 0.0411053 
0.0342195 -0.0230458 0.0530759 
0.0308671 -0.0150261 0.0484085 
0.0534369 0.000582962 0.0459531 
0.0692735 -0.005228 0.0337405 
0.0588998 -0.0045878 0.0519044 
0.0817582 -0.012512 0.00939772 
0.0406366 0.000308269 0.0586125 
0.044361 -0.00407292 0.0668349 
0.0801871 0.015114 0.0368938 
0.0737324 0.019753 0.0321339 
0.0929113 0.0394563 0.0142019 
0.0863079 0.0384277 0.0395691 
0.0623674 0.0195027 0.0517626 
0.068025 0.01795 0.0600154 
0.0794111 0.0403119 0.0343209 
0.0743611 0.039532 0.0604654 
0.0673432 0.0411865 0.0566465 
0.075422 0.0424019 0.0508037 
0.0453589 0.0194741 0.0690384 
0.0498817 0.0402594 0.0735207 
0.051367 0.0170914 0.0758845 
0.05309 0.0393227 0.0818365 
0.0349543 0.0403632 0.0826841 
0.0500085 0.0423917 0.0807919 
0.1263 0.0337022 0.00918588 
3 1 3 0 
3 2 0 3 
3 2 3 4 
3 4 7 2 
3 6 8 5 
3 14 11 13 
3 12 14 13 
3 14 12 15 
3 1 11 18 
3 1 0 11 
3 21 19 20 
3 18 11 14 
3 21 16 19 
3 23 14 24 
3 17 16 21 
3 18 14 22 
3 18 22 1 
3 14 23 22 
3 15 12 27 
3 17 31 30 
3 17 30 28 
3 15 27 29 
3 29 27 32 
3 14 15 24 
3 15 29 24 
3 17 33 31 
3 17 21 25 
3 17 25 33 
3 24 29 34 
3 37 38 39 
3 39 38 40 
3 1 22 44 
3 5 45 6 
3 45 5 20 
3 3 1 44 
3 26 20 5 
3 37 22 23 
3 25 26 47 
3 21 20 26 
3 21 26 25 
3 44 4 3 
3 8 46 5 
3 46 8 10 
3 37 39 44 
3 22 37 44 
3 46 49 26 
3 26 49 47 
3 44 39 42 
3 5 46 26 
3 50 38 37 
3 50 23 51 
3 50 52 38 
3 50 51 52 
3 51 53 54 
3 54 53 55 
3 51 54 52 
3 52 56 38 
3 38 56 43 
3 38 43 40 
3 56 52 57 
3 52 54 57 
3 53 51 23 
3 23 24 53 
3 50 37 23 
3 25 47 33 
3 47 58 33 
3 53 24 34 
3 53 34 55 
3 33 58 59 
3 31 33 36 
3 47 60 58 
3 47 49 60 
3 43 56 61 
3 60 62 58 
3 64 65 63 
3 63 65 66 
3 63 72 67 
3 63 66 72 
3 68 70 69 
3 65 73 66 
3 72 66 74 
3 66 73 74 
3 74 73 70 
3 69 70 73 
3 67 72 76 
3 71 70 68 
3 71 77 70 
3 67 76 75 
3 70 77 79 
3 76 78 75 
3 72 74 82 
3 70 79 74 
3 74 79 82 
3 72 82 76 
3 76 82 78 
3 77 81 79 
3 82 83 78 
3 82 79 83 
3 83 79 81 
3 64 85 87 
3 64 87 86 
3 90 91 87 
3 0 2 84 
3 85 84 87 
3 84 90 87 
3 89 88 93 
3 64 94 65 
3 64 86 94 
3 87 91 96 
3 86 87 88 
3 87 96 88 
3 86 88 94 
3 88 96 93 
3 2 97 90 
3 91 97 99 
3 90 97 91 
3 93 100 98 
3 84 2 90 
3 89 6 45 
3 98 6 89 
3 89 93 98 
3 7 103 97 
3 102 98 100 
3 97 104 105 
3 7 97 2 
3 6 98 101 
3 102 101 98 
3 6 101 8 
3 101 102 107 
3 8 101 106 
3 99 108 91 
3 91 108 96 
3 108 100 96 
3 93 96 100 
3 84 11 0 
3 84 85 11 
3 85 13 11 
3 19 16 92 
3 63 85 64 
3 68 95 92 
3 92 95 89 
3 88 89 95 
3 63 13 85 
3 13 67 12 
3 13 63 67 
3 92 16 68 
3 95 68 69 
3 89 45 92 
3 19 92 45 
3 45 20 19 
3 65 94 95 
3 65 95 73 
3 95 69 73 
3 88 95 94 
3 68 16 71 
3 16 28 71 
3 28 30 71 
3 28 16 17 
3 12 67 27 
3 27 67 75 
3 71 30 77 
3 30 109 77 
3 31 109 30 
3 32 35 29 
3 32 110 35 
3 29 35 34 
3 35 110 114 
3 110 113 114 
3 111 36 115 
3 36 112 115 
3 54 55 117 
3 54 117 118 
3 54 118 57 
3 57 118 119 
3 55 34 35 
3 35 114 55 
3 55 114 117 
3 33 59 36 
3 36 59 112 
3 114 113 116 
3 114 116 121 
3 112 120 115 
3 114 121 117 
3 112 59 120 
3 58 62 59 
3 62 125 59 
3 117 124 126 
3 117 122 124 
3 59 125 120 
3 117 121 122 
3 120 129 127 
3 116 130 121 
3 121 130 122 
3 124 122 131 
3 124 131 128 
3 122 130 131 
3 130 133 132 
3 135 131 136 
3 131 130 136 
3 130 132 136 
3 132 133 137 
3 131 135 134 
3 135 136 138 
3 136 132 139 
3 135 138 140 
3 132 137 139 
3 138 141 140 
3 138 136 141 
3 141 136 143 
3 141 143 144 
3 75 78 80 
3 77 145 81 
3 80 78 146 
3 83 81 147 
3 78 83 146 
3 27 75 32 
3 75 80 32 
3 32 80 110 
3 109 111 148 
3 109 145 77 
3 109 148 145 
3 145 147 81 
3 145 148 147 
3 110 80 149 
3 80 146 149 
3 151 152 148 
3 147 148 152 
3 109 31 111 
3 111 31 36 
3 111 115 148 
3 110 149 113 
3 149 150 113 
3 148 115 151 
3 146 83 153 
3 147 152 83 
3 83 154 153 
3 83 152 154 
3 149 146 155 
3 113 150 116 
3 116 150 156 
3 150 149 155 
3 151 115 157 
3 151 157 158 
3 150 155 156 
3 146 153 155 
3 151 158 152 
3 152 158 154 
3 153 154 155 
3 120 123 115 
3 115 123 157 
3 116 156 161 
3 130 116 161 
3 157 123 160 
3 157 160 158 
3 160 162 158 
3 156 155 159 
3 156 159 163 
3 120 127 123 
3 123 127 160 
3 127 164 165 
3 127 165 160 
3 156 163 161 
3 163 166 161 
3 161 169 167 
3 161 168 169 
3 160 170 162 
3 166 163 171 
3 161 166 172 
3 168 161 172 
3 166 173 172 
3 166 175 173 
3 155 154 159 
3 154 176 159 
3 158 162 154 
3 154 162 176 
3 163 159 176 
3 162 177 176 
3 162 170 177 
3 168 172 178 
3 178 172 179 
3 168 178 180 
3 179 172 181 
3 179 181 182 
3 178 183 180 
3 178 179 183 
3 139 184 136 
3 136 184 143 
3 139 142 185 
3 139 185 184 
3 184 185 186 
3 184 189 143 
3 143 189 188 
3 188 191 190 
3 186 182 184 
3 186 179 182 
3 182 181 189 
3 181 193 192 
3 181 192 189 
3 184 182 189 
3 188 189 191 
3 189 192 191 
3 173 193 181 
3 172 173 181 
3 173 175 193 
3 4 9 7 
3 7 9 103 
3 4 42 9 
3 8 106 10 
3 195 194 9 
3 39 41 42 
3 41 39 40 
3 40 43 198 
3 40 198 41 
3 41 200 42 
3 41 199 200 
3 200 199 201 
3 48 49 46 
3 4 44 42 
3 48 46 10 
3 42 195 9 
3 49 48 203 
3 48 202 203 
3 10 196 206 
3 10 202 48 
3 204 197 195 
3 194 195 197 
3 10 206 202 
3 195 42 200 
3 195 200 204 
3 200 207 204 
3 200 201 207 
3 204 207 205 
3 202 206 209 
3 43 210 198 
3 41 198 210 
3 56 57 61 
3 57 211 61 
3 211 57 119 
3 61 211 210 
3 211 119 212 
3 41 210 199 
3 199 213 201 
3 199 210 213 
3 211 212 210 
3 210 212 213 
3 213 212 214 
3 119 215 212 
3 43 61 210 
3 49 203 60 
3 203 216 60 
3 60 216 62 
3 216 217 62 
3 203 202 208 
3 216 203 208 
3 201 218 207 
3 213 218 201 
3 207 218 219 
3 212 215 214 
3 213 214 218 
3 214 220 218 
3 208 217 216 
3 204 221 197 
3 204 205 221 
3 202 209 208 
3 205 207 224 
3 209 222 225 
3 205 223 221 
3 224 223 205 
3 209 225 226 
3 224 227 223 
3 218 228 219 
3 209 226 208 
3 207 219 224 
3 218 220 228 
3 208 230 217 
3 208 226 230 
3 224 219 227 
3 219 228 233 
3 226 229 230 
3 219 233 227 
3 228 220 233 
3 230 229 231 
3 233 220 234 
3 97 103 104 
3 102 235 107 
3 102 100 235 
3 104 236 105 
3 107 106 101 
3 103 194 104 
3 194 103 9 
3 106 107 196 
3 10 106 196 
3 194 236 104 
3 107 237 239 
3 196 107 239 
3 194 242 236 
3 196 239 243 
3 206 196 241 
3 241 196 243 
3 237 240 239 
3 97 105 99 
3 100 108 235 
3 99 244 108 
3 105 244 99 
3 108 244 235 
3 236 238 105 
3 105 238 244 
3 107 235 237 
3 244 237 235 
3 244 238 245 
3 244 245 237 
3 237 245 240 
3 238 236 246 
3 236 242 246 
3 194 197 242 
3 239 240 243 
3 243 240 248 
3 246 242 247 
3 242 197 249 
3 238 246 245 
3 245 250 240 
3 246 247 245 
3 245 247 250 
3 206 241 209 
3 241 222 209 
3 243 222 241 
3 243 248 222 
3 197 221 249 
3 221 251 249 
3 242 249 247 
3 248 240 252 
3 249 253 247 
3 249 251 253 
3 222 254 225 
3 222 248 254 
3 221 223 251 
3 225 254 255 
3 223 256 251 
3 248 257 254 
3 248 252 257 
3 240 250 252 
3 250 247 253 
3 252 250 257 
3 226 225 232 
3 226 232 229 
3 225 255 232 
3 223 227 256 
3 229 232 258 
3 227 233 256 
3 232 255 258 
3 229 258 259 
3 229 259 231 
3 251 260 253 
3 254 261 255 
3 254 257 261 
3 251 256 260 
3 257 250 262 
3 250 253 260 
3 250 260 262 
3 257 262 261 
3 256 263 260 
3 255 261 264 
3 256 233 263 
3 263 233 265 
3 258 255 264 
3 260 263 266 
3 263 267 266 
3 261 262 268 
3 261 268 264 
3 262 260 268 
3 268 260 266 
3 118 269 119 
3 117 126 118 
3 118 126 269 
3 119 269 215 
3 125 62 270 
3 120 125 129 
3 124 128 126 
3 270 271 125 
3 125 271 129 
3 126 128 272 
3 269 126 272 
3 62 217 270 
3 269 274 215 
3 215 274 275 
3 270 217 276 
3 270 276 271 
3 129 271 273 
3 269 272 274 
3 271 277 273 
3 274 272 279 
3 129 164 127 
3 128 280 133 
3 131 134 128 
3 128 134 280 
3 133 272 128 
3 133 278 272 
3 133 280 137 
3 214 215 220 
3 217 230 276 
3 215 275 220 
3 230 231 276 
3 276 277 271 
3 274 279 275 
3 275 279 282 
3 220 275 234 
3 275 282 234 
3 135 140 134 
3 139 137 142 
3 134 140 280 
3 280 142 137 
3 140 144 280 
3 280 144 142 
3 141 144 140 
3 130 161 133 
3 129 273 164 
3 133 167 283 
3 164 284 165 
3 164 273 284 
3 161 167 133 
3 160 165 170 
3 166 171 174 
3 167 169 171 
3 174 175 166 
3 171 175 174 
3 169 180 171 
3 171 285 286 
3 133 283 278 
3 283 288 278 
3 284 289 165 
3 273 287 284 
3 283 286 288 
3 284 287 289 
3 289 287 291 
3 167 171 286 
3 167 286 283 
3 165 289 170 
3 163 176 285 
3 163 285 171 
3 177 285 176 
3 289 291 292 
3 289 292 177 
3 170 289 177 
3 285 177 286 
3 276 231 281 
3 276 281 277 
3 277 281 293 
3 277 293 287 
3 287 293 294 
3 231 293 281 
3 231 259 293 
3 233 234 265 
3 234 282 295 
3 234 295 265 
3 259 294 293 
3 259 297 294 
3 282 288 295 
3 282 279 288 
3 296 295 288 
3 265 295 296 
3 291 294 298 
3 296 288 290 
3 298 296 290 
3 297 298 294 
3 272 278 279 
3 273 277 287 
3 279 278 288 
3 286 290 288 
3 287 294 291 
3 292 290 177 
3 291 298 290 
3 291 290 292 
3 286 177 290 
3 168 180 169 
3 171 180 175 
3 183 299 180 
3 180 299 175 
3 142 144 185 
3 185 144 187 
3 185 187 186 
3 143 190 144 
3 143 188 190 
3 144 190 191 
3 187 144 192 
3 144 191 192 
3 183 179 187 
3 186 187 179 
3 193 299 192 
3 183 187 299 
3 187 192 299 
3 193 175 299 
3 258 264 259 
3 263 265 267 
3 265 296 267 
3 264 297 259 
3 266 267 268 
3 264 298 297 
3 264 268 298 
3 298 268 267 
3 267 296 298 
