ply
format ascii 1.0
element vertex 452
property double x
property double y
property double z
element face 900
property list uchar int vertex_indices
end_header
-0.000657534 0.0902907 0.120242 
0.0100892 -0.0741583 0.130449 
0.000657534 0.0902907 -0.120242 
-0.0100892 -0.0741583 -0.130449 
0.0902907 0.120242 0.000657534 
-0.0741583 0.130449 0.0100892 
0.0902907 -0.120242 0.000657534 
-0.0754153 -0.129612 -0.0122733 
0.120242 -0.000657534 0.0902907 
-0.120242 0.000657534 0.0902907 
0.129612 -0.0122733 -0.0754153 
-0.129612 0.0122733 -0.0754153 
-0.0137277 0.00581778 0.14974 
0.048808 0.120404 0.0755163 
-0.048808 0.120404 0.0755163 
0.0755163 0.048808 0.120404 
-0.0755163 0.048808 0.120404 
0.048808 -0.120404 0.0755163 
-0.048808 -0.120404 0.0755163 
0.0755163 -0.048808 0.120404 
-0.0755163 -0.048808 0.120404 
0.0137277 0.00581778 -0.14974 
0.048808 0.120404 -0.0755163 
-0.048808 0.120404 -0.0755163 
0.0755163 0.048808 -0.120404 
-0.0755163 0.048808 -0.120404 
0.048808 -0.120404 -0.0755163 
-0.048808 -0.120404 -0.0755163 
0.0755163 -0.048808 -0.120404 
-0.0755163 -0.048808 -0.120404 
0.0126776 0.149664 -0.00793733 
0.120404 0.0755163 0.048808 
0.120404 0.0755163 -0.048808 
-0.120404 0.0755163 0.048808 
-0.120404 0.0755163 -0.048808 
0.0126776 -0.149664 0.00793733 
0.120404 -0.0755163 0.048808 
0.120404 -0.0755163 -0.048808 
-0.120404 -0.0755163 0.048808 
-0.120404 -0.0755163 -0.048808 
0.149851 0.00866146 0.0080291 
-0.149664 -0.00793733 0.0126776 
1.03332e-16 0.0555914 0.139812 
0.0330177 0.0933978 0.113368 
-0.0180495 0.104719 0.106136 
0.0369116 0.0661527 0.129847 
-0.0369116 0.0661527 0.129847 
-0.00629578 -0.0315363 0.14708 
0.0116948 -0.101433 0.110505 
-0.0330177 -0.0933978 0.113368 
0.0369116 -0.0661527 0.129847 
-0.0369116 -0.0661527 0.129847 
-1.03332e-16 0.0555914 -0.139812 
0.0180495 0.104719 -0.106136 
-0.0330177 0.0933978 -0.113368 
0.0369116 0.0661527 -0.129847 
-0.0369116 0.0661527 -0.129847 
0.00629578 -0.0315363 -0.14708 
0.0330177 -0.0933978 -0.113368 
-0.0116948 -0.101433 -0.110505 
0.0369116 -0.0661527 -0.129847 
-0.0369116 -0.0661527 -0.129847 
0.0661527 0.129847 0.0369116 
0.0661527 0.129847 -0.0369116 
0.0555914 0.139812 -5.03164e-17 
0.104719 0.106136 0.0180495 
0.101826 0.109418 -0.014884 
-0.0661527 0.129847 0.0369116 
-0.0661527 0.129847 -0.0369116 
-0.0477085 0.142745 0.000729363 
-0.101433 0.110505 0.0116948 
-0.0980739 0.112592 -0.0176155 
0.0661527 -0.129847 0.0369116 
0.0661527 -0.129847 -0.0369116 
0.0555914 -0.139812 5.03164e-17 
0.104719 -0.106136 0.0180495 
0.101826 -0.109418 -0.014884 
-0.0661527 -0.129847 0.0369116 
-0.0661527 -0.129847 -0.0369116 
-0.0477085 -0.142745 -0.000729363 
-0.104719 -0.106136 0.0180495 
-0.097899 -0.112767 -0.0174405 
0.113368 0.0330177 0.0933978 
0.106136 -0.0180495 0.104719 
0.129847 0.0369116 0.0661527 
0.129847 -0.0369116 0.0661527 
0.139812 4.74258e-16 0.0555914 
-0.106136 0.0180495 0.104719 
-0.113368 -0.0330177 0.0933978 
-0.129847 0.0369116 0.0661527 
-0.129847 -0.0369116 0.0661527 
-0.139812 -4.74258e-16 0.0555914 
0.106136 0.0180495 -0.104719 
0.112767 -0.0174405 -0.097899 
0.129847 0.0369116 -0.0661527 
0.129847 -0.0369116 -0.0661527 
0.147296 0.0055394 -0.0296114 
-0.112767 0.0174405 -0.097899 
-0.103787 -0.00883484 -0.108669 
-0.129847 0.0369116 -0.0661527 
-0.129847 -0.0369116 -0.0661527 
-0.147296 -0.0055394 -0.0296114 
0.0407859 0.0297206 0.141806 
-0.0395982 0.0145552 0.144445 
0.0496097 -0.0156146 0.141035 
-0.0496097 -0.0156146 0.141035 
0.0101057 0.121284 0.0884882 
0.0621247 0.086058 0.106781 
0.0297206 0.141806 0.0407859 
0.086058 0.106781 0.0621247 
-0.0621247 0.086058 0.106781 
-0.0156146 0.141035 0.0496097 
-0.086058 0.106781 0.0621247 
0.0884882 0.0101057 0.121284 
0.106781 0.0621247 0.086058 
-0.0846389 0.0147089 0.123545 
-0.106781 0.0621247 0.086058 
-0.0101057 -0.121284 0.0884882 
0.0621247 -0.086058 0.106781 
0.0156146 -0.141035 0.0496097 
0.086058 -0.106781 0.0621247 
-0.0621247 -0.086058 0.106781 
-0.0145552 -0.144445 0.0395982 
-0.086058 -0.106781 0.0621247 
0.106781 -0.0621247 0.086058 
-0.106781 -0.0621247 0.086058 
0.0395982 0.0145552 -0.144445 
-0.0407859 0.0297206 -0.141806 
0.0496097 -0.0156146 -0.141035 
-0.0496097 -0.0156146 -0.141035 
0.00340337 0.129245 -0.077013 
0.0621247 0.086058 -0.106781 
0.0156146 0.141035 -0.0496097 
0.086058 0.106781 -0.0621247 
-0.0621247 0.086058 -0.106781 
-0.0145552 0.144445 -0.0395982 
-0.086058 0.106781 -0.0621247 
0.0846389 0.0147089 -0.123545 
0.106781 0.0621247 -0.086058 
-0.0884882 0.0101057 -0.121284 
-0.106781 0.0621247 -0.086058 
0.0101057 -0.121284 -0.0884882 
0.0621247 -0.086058 -0.106781 
0.0297206 -0.141806 -0.0407859 
0.086058 -0.106781 -0.0621247 
-0.0621247 -0.086058 -0.106781 
-0.0156146 -0.141035 -0.0496097 
-0.086058 -0.106781 -0.0621247 
0.106781 -0.0621247 -0.086058 
-0.106781 -0.0621247 -0.086058 
0.12908 0.076441 0.00929453 
0.139895 0.0452225 0.0316552 
0.142335 0.0471289 -0.0117281 
-0.12908 0.076441 -0.00929453 
-0.144445 0.0395982 0.0145552 
-0.141035 0.0496097 -0.0156146 
0.123545 -0.0846389 0.0147089 
0.144445 -0.0395982 0.0145552 
0.141035 -0.0496097 -0.0156146 
-0.12908 -0.076441 0.00929453 
-0.139895 -0.0452225 0.0316552 
-0.142335 -0.0471289 -0.0117281 
0.0171085 0.0737318 0.129874 
-0.0145095 0.0700204 0.132068 
-2.3662e-17 -0.0533384 0.140548 
-0.0142451 -0.078036 0.12789 
0.0145095 0.0700204 -0.132068 
-0.0171085 0.0737318 -0.129874 
2.3662e-17 -0.0533384 -0.140548 
0.0142451 -0.078036 -0.12789 
0.0700204 0.132068 0.0145095 
0.0700204 0.132068 -0.0145095 
-0.078036 0.12789 -0.0142451 
0.0700204 -0.132068 0.0145095 
0.0700204 -0.132068 -0.0145095 
-0.0700204 -0.132068 0.0145095 
-0.090693 -0.119144 0.0152807 
0.129874 0.0171085 0.0737318 
0.132068 -0.0145095 0.0700204 
-0.132068 0.0145095 0.0700204 
-0.129874 -0.0171085 0.0737318 
0.119144 0.0152807 -0.090693 
0.132068 0.0145095 -0.0700204 
0.140548 -2.75729e-16 -0.0533384 
-0.119144 -0.0152807 -0.090693 
-0.132068 -0.0145095 -0.0700204 
-0.140548 2.75729e-16 -0.0533384 
-0.0100862 0.0272838 0.147511 
0.00928736 -0.0155928 0.149237 
0.0203849 0.0057525 0.148718 
-0.0125403 -0.0157863 0.148918 
0.0400996 0.105865 0.098945 
0.0572534 0.12723 0.0559796 
0.0279918 0.121867 0.0833547 
0.0631438 0.109494 0.0814269 
0.0323536 0.132284 0.0634037 
-0.0400996 0.105865 0.098945 
-0.0572534 0.12723 0.0559796 
-0.0279918 0.121867 0.0833547 
-0.0631438 0.109494 0.0814269 
-0.0366846 0.135492 0.0544959 
0.0559796 0.0572534 0.12723 
0.098945 0.0400996 0.105865 
0.0634037 0.0323536 0.132284 
0.0770275 0.0751505 0.104946 
0.0833547 0.0279918 0.121867 
0.0853106 0.0595602 0.108353 
-0.0559796 0.0572534 0.12723 
-0.098945 0.0400996 0.105865 
-0.0679321 0.0304401 0.130631 
-0.0770275 0.0751505 0.104946 
-0.0853106 0.0595602 0.108353 
0.0400996 -0.105865 0.098945 
0.0572534 -0.12723 0.0559796 
0.0279918 -0.121867 0.0833547 
0.0631438 -0.109494 0.0814269 
0.0366846 -0.135492 0.0544959 
-0.0400996 -0.105865 0.098945 
-0.0572534 -0.12723 0.0559796 
-0.0279918 -0.121867 0.0833547 
-0.0631438 -0.109494 0.0814269 
-0.0323536 -0.132284 0.0634037 
0.0559796 -0.0572534 0.12723 
0.098945 -0.0400996 0.105865 
0.0634037 -0.0323536 0.132284 
0.0833547 -0.0279918 0.121867 
0.0770275 -0.0751505 0.104946 
0.0853106 -0.0595602 0.108353 
-0.0559796 -0.0572534 0.12723 
-0.098945 -0.0400996 0.105865 
-0.0634037 -0.0323536 0.132284 
-0.0875471 -0.0241915 0.11998 
-0.0770275 -0.0751505 0.104946 
-0.0853106 -0.0595602 0.108353 
0.0100862 0.0272838 -0.147511 
0.00928736 -0.0155928 -0.149237 
-0.0203849 0.0057525 -0.148718 
-0.0189171 -0.0195708 -0.147988 
0.0400996 0.105865 -0.098945 
0.0572534 0.12723 -0.0559796 
0.0304401 0.130631 -0.0679321 
0.0631438 0.109494 -0.0814269 
-0.0400996 0.105865 -0.098945 
-0.0572534 0.12723 -0.0559796 
-0.0241915 0.11998 -0.0875471 
-0.0631438 0.109494 -0.0814269 
-0.0323536 0.132284 -0.0634037 
0.0559796 0.0572534 -0.12723 
0.098945 0.0400996 -0.105865 
0.0679321 0.0304401 -0.130631 
0.0770275 0.0751505 -0.104946 
0.0853106 0.0595602 -0.108353 
-0.0559796 0.0572534 -0.12723 
-0.098945 0.0400996 -0.105865 
-0.0634037 0.0323536 -0.132284 
-0.0770275 0.0751505 -0.104946 
-0.0833547 0.0279918 -0.121867 
-0.0853106 0.0595602 -0.108353 
0.0400996 -0.105865 -0.098945 
0.0572534 -0.12723 -0.0559796 
0.0279918 -0.121867 -0.0833547 
0.0631438 -0.109494 -0.0814269 
0.0323536 -0.132284 -0.0634037 
-0.0400996 -0.105865 -0.098945 
-0.0572534 -0.12723 -0.0559796 
-0.0279918 -0.121867 -0.0833547 
-0.0631438 -0.109494 -0.0814269 
-0.0323536 -0.132284 -0.0634037 
0.0559796 -0.0572534 -0.12723 
0.098945 -0.0400996 -0.105865 
0.0634037 -0.0323536 -0.132284 
0.0833547 -0.0279918 -0.121867 
0.0770275 -0.0751505 -0.104946 
0.0853106 -0.0595602 -0.108353 
-0.0559796 -0.0572534 -0.12723 
-0.098945 -0.0400996 -0.105865 
-0.0634037 -0.0323536 -0.132284 
-0.0833547 -0.0279918 -0.121867 
-0.0770275 -0.0751505 -0.104946 
-0.0853106 -0.0595602 -0.108353 
0.0272838 0.147511 0.0100862 
-0.0155928 0.149237 0.00928736 
0.0057525 0.148718 0.0203849 
-0.0057525 0.148718 -0.0203849 
0.105865 0.098945 0.0400996 
0.12723 0.0559796 0.0572534 
0.109494 0.0814269 0.0631438 
0.130631 0.0679321 0.0304401 
0.105865 0.098945 -0.0400996 
0.12723 0.0559796 -0.0572534 
0.109494 0.0814269 -0.0631438 
0.121867 0.0833547 -0.0279918 
0.135492 0.0544959 -0.0366846 
-0.105865 0.098945 0.0400996 
-0.12723 0.0559796 0.0572534 
-0.109494 0.0814269 0.0631438 
-0.123136 0.0839812 0.0206441 
-0.135492 0.0544959 0.0366846 
-0.105865 0.098945 -0.0400996 
-0.12723 0.0559796 -0.0572534 
-0.109494 0.0814269 -0.0631438 
-0.121867 0.0833547 -0.0279918 
-0.132284 0.0634037 -0.0323536 
0.0272838 -0.147511 -0.0100862 
-0.0242711 -0.148191 0.0092051 
-0.0057525 -0.148718 0.0203849 
0.0057525 -0.148718 -0.0203849 
-0.0195708 -0.147988 -0.0189171 
0.105865 -0.098945 0.0400996 
0.12723 -0.0559796 0.0572534 
0.109494 -0.0814269 0.0631438 
0.130631 -0.0679321 0.0304401 
0.105865 -0.098945 -0.0400996 
0.12723 -0.0559796 -0.0572534 
0.109494 -0.0814269 -0.0631438 
0.121867 -0.0833547 -0.0279918 
0.135492 -0.0544959 -0.0366846 
-0.105865 -0.098945 0.0400996 
-0.12723 -0.0559796 0.0572534 
-0.109494 -0.0814269 0.0631438 
-0.130631 -0.0679321 0.0304401 
-0.105865 -0.098945 -0.0400996 
-0.12723 -0.0559796 -0.0572534 
-0.109494 -0.0814269 -0.0631438 
-0.121867 -0.0833547 -0.0279918 
-0.135492 -0.0544959 -0.0366846 
0.147511 0.0100862 0.0272838 
0.149237 -0.00928736 -0.0155928 
0.148718 0.0203849 -0.0057525 
0.148718 -0.0203849 0.0057525 
-0.147511 0.0100862 0.0272838 
-0.149237 0.00928736 -0.0155928 
-0.148718 0.0203849 0.0057525 
-0.148718 -0.0203849 -0.0057525 
0.0249482 0.0465343 0.140603 
-0.0249482 0.0465343 0.140603 
0.0134408 0.0273557 0.147145 
0.00303258 0.109011 0.103497 
-0.0323579 0.0865104 0.118823 
-0.0121154 0.126779 0.0801136 
-0.0445914 0.03739 0.138476 
0.0249482 -0.0465343 0.140603 
-0.0249482 -0.0465343 0.140603 
0.0252147 -0.0254148 0.145877 
-0.00303258 -0.109011 0.103497 
0.0323579 -0.0865104 0.118823 
0.0121154 -0.126779 0.0801136 
0.0445914 -0.03739 0.138476 
-0.0445914 -0.03739 0.138476 
0.0249482 0.0465343 -0.140603 
-0.0249482 0.0465343 -0.140603 
-0.0134408 0.0273557 -0.147145 
-0.00303258 0.109011 -0.103497 
0.0323579 0.0865104 -0.118823 
0.0208261 0.118998 -0.0892704 
0.0445914 0.03739 -0.138476 
0.0249482 -0.0465343 -0.140603 
-0.0249482 -0.0465343 -0.140603 
0.00303258 -0.109011 -0.103497 
-0.0323579 -0.0865104 -0.118823 
-0.0121154 -0.126779 -0.0801136 
0.0445914 -0.03739 -0.138476 
-0.0445914 -0.03739 -0.138476 
0.0465343 0.140603 0.0249482 
0.0865104 0.118823 0.0323579 
0.0392593 0.143646 -0.0215631 
0.0865104 0.118823 -0.0323579 
0.03739 0.138476 -0.0445914 
0.114863 0.0969208 -0.00730874 
0.118998 0.0892704 0.0208261 
-0.0465343 0.140603 0.0249482 
-0.0865104 0.118823 0.0323579 
-0.0465343 0.140603 -0.0249482 
-0.0868935 0.115657 -0.0403751 
-0.03739 0.138476 -0.0445914 
-0.0254148 0.145877 0.0252147 
-0.0273557 0.147145 -0.0134408 
-0.114863 0.0969208 -0.00730874 
0.0392593 -0.143646 0.0215631 
0.0865104 -0.118823 0.0323579 
0.0465343 -0.140603 -0.0249482 
0.0865104 -0.118823 -0.0323579 
0.114863 -0.0969208 -0.00730874 
-0.0465343 -0.140603 0.0249482 
-0.0868935 -0.115657 0.0403751 
-0.03739 -0.138476 0.0445914 
-0.0465343 -0.140603 -0.0249482 
-0.0868935 -0.115657 -0.0403751 
-0.03739 -0.138476 -0.0445914 
-0.114863 -0.0969208 -0.00730874 
-0.118998 -0.0892704 0.0208261 
0.103497 0.00303258 0.109011 
0.118823 -0.0323579 0.0865104 
0.0801136 -0.0121154 0.126779 
0.140603 0.0249482 0.0465343 
0.140603 -0.0249482 0.0465343 
0.138476 -0.0445914 0.03739 
0.147145 -0.0134408 0.0273557 
-0.103497 -0.00303258 0.109011 
-0.118823 0.0323579 0.0865104 
-0.140603 0.0249482 0.0465343 
-0.143646 -0.0215631 0.0392593 
0.0969208 -0.00730874 -0.114863 
0.115657 0.0403751 -0.0868935 
0.115657 -0.0403751 -0.0868935 
0.140603 0.0249482 -0.0465343 
0.143646 -0.0215631 -0.0392593 
0.145877 0.0252147 -0.0254148 
-0.115657 0.0403751 -0.0868935 
-0.115657 -0.0403751 -0.0868935 
-0.0801136 -0.0121154 -0.126779 
-0.143646 0.0215631 -0.0392593 
-0.138476 0.0445914 -0.03739 
-0.140603 -0.0249482 -0.0465343 
-0.145877 -0.0252147 -0.0254148 
0.040399 5.79836e-06 0.144869 
0.0648105 0.00895083 0.135252 
-0.0648105 0.00895083 0.135252 
0.00895083 0.135252 0.0648105 
0.0895177 0.0885221 0.0825108 
5.79836e-06 0.144869 0.040399 
-0.0895177 0.0885221 0.0825108 
-0.00895083 -0.135252 0.0648105 
0.0895177 -0.0885221 0.0825108 
-0.0895177 -0.0885221 0.0825108 
0.0648105 0.00895083 -0.135252 
-0.040399 5.79836e-06 -0.144869 
-0.0648105 0.00895083 -0.135252 
-0.00895083 0.135252 -0.0648105 
0.0895177 0.0885221 -0.0825108 
-0.0895177 0.0885221 -0.0825108 
0.00895083 -0.135252 -0.0648105 
0.0895177 -0.0885221 -0.0825108 
5.79836e-06 -0.144869 -0.040399 
-0.0895177 -0.0885221 -0.0825108 
0.138882 0.0567863 0.00605494 
-0.135252 0.0648105 0.00895083 
0.135252 -0.0648105 0.00895083 
-0.138882 -0.0567863 0.00605494 
-0.0325413 -0.0168162 0.145768 
-0.0764374 -0.0103069 0.129001 
0.0168162 -0.145768 0.0325413 
0.0325413 -0.0168162 -0.145768 
0.0168162 0.145768 -0.0325413 
0.0764374 -0.0103069 -0.129001 
0.129001 0.0764374 -0.0103069 
0.145768 0.0325413 0.0168162 
-0.145768 0.0325413 -0.0168162 
0.129001 -0.0764374 -0.0103069 
0.145768 -0.0325413 -0.0168162 
-0.129001 -0.0764374 -0.0103069 
-0.145768 -0.0325413 0.0168162 
3 0 42 162 
3 0 163 42 
3 8 178 86 
3 8 86 177 
3 4 171 64 
3 9 91 180 
3 4 64 170 
3 10 181 182 
3 7 175 176 
3 6 74 174 
3 2 166 52 
3 9 179 91 
3 6 173 74 
3 11 184 185 
3 2 52 167 
3 19 225 224 
3 30 281 282 
3 20 230 231 
3 37 316 315 
3 32 291 292 
3 23 246 244 
3 41 332 331 
3 39 324 325 
3 35 307 306 
3 25 254 256 
3 35 305 304 
3 12 190 188 
3 30 283 281 
3 15 203 205 
3 14 198 200 
3 40 329 327 
3 33 296 297 
3 17 214 216 
3 27 265 267 
3 21 237 236 
3 28 270 271 
3 21 235 237 
3 40 327 328 
3 41 331 333 
3 35 304 307 
3 12 188 189 
3 13 195 193 
3 34 302 301 
3 18 221 219 
3 26 262 260 
3 29 277 276 
3 132 443 367 
3 129 237 362 
3 128 361 442 
3 104 343 347 
3 152 407 292 
3 155 412 447 
3 161 414 325 
3 111 375 200 
3 105 348 439 
3 158 316 449 
3 119 441 216 
3 146 307 388 
3 106 418 339 
3 117 422 346 
3 141 431 360 
3 111 420 375 
3 146 433 307 
3 153 436 296 
3 129 426 237 
3 86 397 326 
3 64 365 280 
3 66 368 288 
3 81 389 321 
3 74 378 303 
3 104 415 343 
3 80 176 317 
3 65 364 284 
3 76 381 312 
3 115 440 417 
3 156 448 437 
3 139 427 410 
3 42 187 336 
3 43 191 106 
3 71 298 377 
3 91 330 401 
3 49 217 117 
3 58 258 141 
3 88 229 231 
3 76 312 382 
3 54 242 244 
3 97 253 139 
3 82 202 113 
3 52 234 351 
3 93 269 402 
3 43 106 337 
3 44 196 338 
3 48 212 345 
3 66 288 366 
3 49 117 344 
3 58 141 358 
3 59 263 359 
3 70 293 371 
3 88 231 398 
3 75 308 379 
3 92 248 181 
3 54 244 352 
3 101 411 186 
3 82 113 391 
3 87 208 399 
3 83 223 392 
3 96 406 183 
3 53 238 353 
3 98 275 184 
3 113 416 393 
3 137 444 425 
3 334 162 42 
3 335 42 163 
3 395 86 178 
3 394 177 86 
3 365 64 171 
3 373 71 172 
3 377 70 71 
3 401 180 91 
3 357 168 3 
3 356 169 168 
3 341 164 1 
3 363 170 64 
3 382 6 76 
3 405 183 182 
3 411 11 186 
3 413 186 185 
3 383 175 79 
3 380 174 74 
3 387 7 81 
3 98 184 97 
3 349 52 166 
3 404 93 10 
3 370 69 5 
3 342 165 164 
3 406 10 183 
3 368 66 4 
3 372 172 69 
3 408 97 11 
3 400 91 179 
3 389 81 176 
3 378 74 173 
3 386 79 7 
3 350 167 52 
3 402 181 93 
3 104 224 393 
3 105 440 230 
3 158 448 316 
3 152 292 445 
3 154 447 332 
3 161 325 450 
3 122 305 441 
3 111 200 339 
3 103 439 12 
3 157 449 329 
3 435 150 287 
3 135 283 443 
3 438 159 320 
3 119 216 346 
3 146 267 360 
3 128 444 270 
3 152 446 328 
3 132 240 130 
3 155 153 302 
3 161 451 333 
3 129 276 410 
3 126 442 21 
3 48 345 1 
3 59 359 3 
3 168 169 3 
3 70 371 5 
3 79 175 7 
3 97 184 11 
3 164 165 1 
3 69 172 5 
3 93 181 10 
3 250 251 24 
3 204 201 15 
3 245 243 23 
3 319 318 38 
3 272 268 28 
3 286 285 31 
3 255 252 25 
3 220 218 18 
3 314 313 37 
3 194 192 13 
3 300 299 34 
3 232 228 20 
3 261 259 26 
3 210 211 16 
3 226 227 19 
3 278 279 29 
3 196 198 14 
3 326 397 40 
3 293 296 33 
3 212 214 17 
3 263 265 27 
3 208 115 16 
3 308 156 36 
3 238 354 22 
3 275 277 29 
3 223 225 19 
3 288 291 32 
3 321 324 39 
3 248 137 24 
3 191 43 107 
3 187 335 103 
3 397 395 157 
3 298 373 136 
3 229 88 125 
3 258 58 142 
3 202 82 114 
3 354 352 130 
3 242 54 134 
3 317 384 123 
3 234 349 126 
3 269 404 148 
3 284 364 109 
3 253 408 140 
3 330 400 154 
3 217 49 121 
3 312 381 144 
3 152 435 446 
3 155 436 153 
3 161 438 451 
3 126 128 442 
3 43 162 45 
3 335 163 46 
3 395 178 85 
3 365 171 63 
3 373 172 68 
3 88 180 90 
3 357 3 61 
3 58 169 60 
3 341 1 50 
3 82 177 84 
3 405 182 94 
3 54 167 56 
3 413 185 100 
3 384 176 77 
3 349 166 55 
3 404 10 95 
3 370 5 67 
3 368 4 65 
3 408 11 99 
3 400 179 89 
3 389 176 80 
3 49 165 51 
3 378 173 72 
3 386 7 78 
3 419 286 109 
3 428 246 135 
3 255 257 140 
3 424 220 121 
3 427 254 127 
3 432 314 144 
3 416 203 102 
3 419 194 107 
3 435 287 151 
3 430 300 136 
3 438 320 160 
3 232 233 125 
3 432 261 142 
3 102 201 45 
3 339 198 44 
3 110 207 46 
3 118 222 50 
3 151 285 84 
3 133 239 63 
3 160 318 90 
3 346 214 48 
3 360 265 59 
3 145 274 61 
3 361 268 60 
3 343 188 47 
3 108 192 62 
3 112 197 67 
3 120 213 72 
3 138 289 94 
3 412 299 99 
3 385 218 77 
3 143 259 73 
3 147 264 78 
3 410 277 98 
3 393 225 83 
3 375 281 69 
3 116 294 89 
3 348 228 51 
3 124 309 85 
3 316 313 95 
3 131 247 55 
3 374 243 68 
3 149 322 100 
3 127 252 56 
3 204 206 114 
3 418 195 108 
3 430 245 134 
3 424 319 123 
3 422 221 122 
3 431 262 143 
3 272 273 148 
3 105 417 440 
3 158 437 448 
3 250 429 138 
3 154 155 447 
3 163 338 46 
3 1 345 50 
3 171 366 63 
3 3 359 61 
3 5 371 67 
3 173 379 72 
3 182 181 94 
3 4 364 65 
3 179 399 89 
3 178 392 85 
3 166 353 55 
3 185 184 100 
3 6 381 76 
3 244 428 130 
3 256 427 139 
3 188 190 47 
3 281 376 69 
3 205 416 113 
3 194 191 107 
3 12 187 103 
3 329 397 157 
3 30 365 443 
3 300 298 136 
3 233 229 125 
3 261 258 142 
3 206 202 114 
3 240 354 130 
3 245 242 134 
3 319 317 123 
3 21 234 126 
3 273 269 148 
3 286 284 109 
3 291 368 445 
3 257 253 140 
3 332 330 154 
3 324 389 450 
3 220 217 121 
3 35 378 441 
3 314 312 144 
3 193 418 106 
3 219 422 117 
3 260 431 141 
3 107 43 45 
3 340 335 46 
3 396 395 85 
3 367 365 63 
3 136 373 68 
3 125 88 90 
3 362 357 61 
3 142 58 60 
3 347 341 50 
3 114 82 84 
3 292 405 94 
3 134 54 56 
3 325 413 100 
3 123 384 77 
3 355 349 55 
3 148 404 95 
3 109 364 62 
3 200 370 67 
3 369 368 65 
3 140 408 99 
3 297 400 89 
3 390 389 80 
3 121 49 51 
3 216 378 72 
3 388 386 78 
3 144 381 73 
3 210 421 116 
3 103 105 439 
3 226 423 124 
3 157 158 449 
3 278 434 149 
3 128 425 444 
3 0 162 43 
3 9 180 88 
3 8 177 82 
3 2 167 54 
3 231 230 440 
3 315 316 448 
3 244 246 428 
3 331 332 447 
3 256 254 427 
3 205 203 416 
3 190 12 439 
3 327 329 449 
3 271 270 444 
3 203 201 102 
3 210 207 110 
3 226 222 118 
3 287 285 151 
3 241 239 133 
3 320 318 160 
3 278 274 145 
3 270 268 361 
3 195 192 108 
3 199 197 112 
3 215 213 120 
3 328 96 407 
3 290 289 138 
3 302 299 412 
3 333 101 414 
3 221 218 385 
3 262 259 143 
3 266 264 147 
3 295 294 116 
3 230 228 348 
3 310 309 124 
3 250 247 131 
3 246 243 374 
3 323 322 149 
3 254 252 127 
3 193 195 418 
3 40 328 446 
3 301 302 153 
3 41 333 451 
3 219 221 422 
3 260 262 431 
3 235 21 442 
3 183 10 182 
3 186 11 185 
3 81 7 176 
3 255 25 257 
3 187 12 336 
3 191 13 193 
3 298 34 301 
3 217 18 219 
3 258 26 260 
3 229 20 231 
3 312 37 315 
3 242 23 244 
3 253 25 256 
3 202 15 205 
3 284 31 369 
3 317 38 390 
3 234 21 351 
3 269 28 271 
3 232 20 233 
3 210 16 207 
3 226 19 222 
3 241 22 239 
3 278 29 274 
3 199 14 197 
3 215 17 213 
3 290 32 289 
3 266 27 264 
3 295 33 294 
3 310 36 309 
3 250 24 247 
3 323 39 322 
3 204 15 206 
3 272 28 273 
3 336 102 334 
3 196 110 338 
3 212 118 345 
3 326 446 394 
3 288 133 366 
3 263 145 359 
3 57 442 356 
3 280 108 363 
3 293 112 371 
3 231 440 398 
3 308 120 379 
3 248 138 403 
3 244 130 352 
3 304 122 383 
3 303 143 380 
3 321 147 387 
3 208 116 399 
3 47 439 342 
3 223 124 392 
3 369 150 368 
3 238 131 353 
3 376 135 372 
3 390 159 389 
3 275 149 409 
3 351 127 350 
3 416 102 415 
3 111 339 418 
3 135 443 132 
3 232 125 424 
3 119 346 422 
3 146 360 431 
3 0 43 337 
3 0 44 338 
3 4 66 366 
3 165 49 344 
3 169 58 358 
3 9 88 398 
3 6 75 379 
3 2 54 352 
3 175 77 176 
3 8 82 391 
3 170 62 364 
3 9 87 399 
3 8 83 392 
3 2 53 353 
3 174 73 381 
3 281 375 420 
3 249 137 425 
3 189 102 336 
3 199 110 196 
3 215 118 212 
3 40 446 326 
3 290 133 288 
3 301 153 377 
3 41 451 401 
3 266 145 263 
3 235 442 57 
3 282 108 280 
3 295 112 293 
3 310 120 308 
3 315 448 382 
3 251 138 248 
3 331 447 411 
3 305 122 304 
3 306 143 303 
3 323 147 321 
3 211 116 208 
3 190 439 47 
3 227 124 223 
3 327 449 406 
3 287 150 369 
3 241 131 238 
3 283 135 376 
3 320 159 390 
3 279 149 275 
3 236 127 351 
3 271 444 402 
3 235 57 237 
3 304 79 307 
3 188 343 415 
3 209 115 417 
3 311 156 437 
3 102 45 334 
3 339 44 337 
3 110 46 338 
3 118 50 345 
3 151 84 394 
3 133 63 366 
3 296 70 377 
3 160 90 401 
3 346 48 344 
3 360 59 358 
3 145 61 359 
3 237 57 357 
3 361 60 356 
3 343 47 341 
3 108 62 363 
3 112 67 371 
3 115 87 398 
3 120 72 379 
3 156 75 382 
3 407 96 405 
3 138 94 403 
3 354 53 352 
3 412 99 411 
3 414 101 413 
3 385 77 383 
3 143 73 380 
3 147 78 387 
3 393 83 391 
3 375 69 370 
3 116 89 399 
3 348 51 342 
3 124 85 392 
3 316 95 406 
3 131 55 353 
3 374 68 372 
3 307 79 386 
3 149 100 409 
3 127 56 350 
3 137 92 402 
3 204 114 419 
3 418 108 420 
3 132 130 428 
3 431 143 433 
3 129 410 427 
3 272 148 432 
3 334 45 162 
3 337 44 0 
3 394 84 177 
3 401 90 180 
3 356 60 169 
3 363 62 170 
3 398 87 9 
3 382 75 6 
3 403 94 181 
3 352 53 2 
3 411 99 11 
3 383 77 175 
3 380 73 174 
3 387 78 7 
3 391 83 8 
3 342 51 165 
3 406 95 10 
3 372 68 172 
3 409 100 184 
3 350 56 167 
3 402 92 181 
3 421 112 295 
3 423 120 310 
3 250 138 251 
3 434 147 323 
3 425 126 249 
3 107 45 201 
3 340 46 207 
3 396 85 309 
3 367 63 239 
3 136 68 243 
3 125 90 318 
3 362 61 274 
3 142 60 268 
3 347 50 222 
3 114 84 285 
3 292 94 289 
3 134 56 252 
3 325 100 322 
3 123 77 218 
3 355 55 247 
3 148 95 313 
3 109 62 192 
3 200 67 197 
3 140 99 299 
3 297 89 294 
3 121 51 228 
3 216 72 213 
3 388 78 264 
3 144 73 259 
3 210 116 211 
3 226 124 227 
3 429 131 241 
3 436 154 297 
3 278 149 279 
3 421 110 199 
3 417 103 209 
3 423 118 215 
3 437 157 311 
3 429 133 290 
3 434 145 266 
3 104 393 416 
3 152 445 435 
3 255 140 430 
3 161 450 438 
3 122 441 119 
3 427 127 426 
3 172 71 70 
3 165 344 48 
3 169 358 59 
3 225 393 224 
3 281 420 282 
3 291 445 292 
3 324 450 325 
3 35 441 305 
3 307 433 306 
3 204 107 201 
3 209 340 207 
3 311 396 309 
3 240 367 239 
3 245 136 243 
3 319 125 318 
3 276 362 274 
3 272 142 268 
3 224 347 222 
3 286 114 285 
3 255 134 252 
3 220 123 218 
3 249 355 247 
3 314 148 313 
3 194 109 192 
3 300 140 299 
3 232 121 228 
3 267 388 264 
3 261 144 259 
3 198 339 200 
3 30 443 283 
3 296 436 297 
3 214 346 216 
3 265 360 267 
3 237 426 236 
3 188 415 189 
3 277 410 276 
3 338 163 0 
3 366 171 4 
3 70 5 172 
3 48 1 165 
3 59 3 169 
3 379 173 6 
3 364 4 170 
3 399 179 9 
3 392 178 8 
3 353 166 2 
3 381 6 174 
3 336 12 189 
3 196 14 199 
3 207 16 209 
3 212 17 215 
3 309 36 311 
3 288 32 290 
3 239 22 240 
3 263 27 266 
3 274 29 276 
3 222 19 224 
3 280 30 282 
3 293 33 295 
3 308 36 310 
3 289 32 292 
3 248 24 251 
3 322 39 325 
3 303 35 306 
3 321 39 323 
3 247 24 249 
3 197 14 200 
3 208 16 211 
3 223 19 227 
3 369 31 287 
3 238 22 241 
3 376 281 283 
3 294 33 297 
3 390 38 320 
3 213 17 216 
3 264 27 267 
3 275 29 279 
3 351 21 236 
3 201 203 15 
3 191 194 13 
3 397 329 40 
3 285 287 31 
3 298 300 34 
3 318 320 38 
3 229 233 20 
3 268 270 28 
3 258 261 26 
3 202 206 15 
3 192 195 13 
3 115 209 16 
3 156 311 36 
3 96 328 327 
3 354 240 22 
3 242 245 23 
3 299 302 34 
3 101 333 331 
3 317 319 38 
3 218 221 18 
3 259 262 26 
3 269 273 28 
3 284 286 31 
3 228 230 20 
3 313 316 37 
3 243 246 23 
3 253 257 25 
3 330 332 41 
3 217 220 18 
3 252 254 25 
3 137 249 24 
3 312 314 37 
3 337 106 339 
3 335 340 103 
3 395 396 157 
3 394 446 151 
3 365 367 443 
3 377 153 296 
3 401 451 160 
3 344 117 346 
3 358 141 360 
3 357 362 237 
3 356 442 361 
3 341 347 343 
3 398 440 115 
3 382 448 156 
3 405 292 407 
3 411 447 412 
3 413 325 414 
3 383 122 385 
3 98 139 410 
3 349 355 126 
3 391 113 393 
3 370 200 375 
3 342 439 348 
3 406 449 316 
3 368 150 445 
3 372 135 374 
3 400 297 154 
3 389 159 450 
3 378 216 441 
3 386 388 307 
3 402 444 137 
3 419 107 204 
3 421 210 110 
3 423 226 118 
3 435 151 446 
3 438 160 451 
3 434 278 145 
3 432 142 272 
3 295 116 421 
3 230 348 105 
3 310 124 423 
3 246 374 135 
3 323 149 434 
3 241 133 429 
3 270 361 128 
3 198 196 44 
3 30 280 365 
3 296 293 70 
3 214 212 48 
3 265 263 59 
3 115 208 87 
3 156 308 75 
3 354 238 53 
3 277 275 98 
3 225 223 83 
3 291 288 368 
3 324 321 389 
3 35 303 378 
3 137 248 92 
3 199 112 421 
3 215 120 423 
3 328 407 152 
3 290 138 429 
3 302 412 155 
3 333 414 161 
3 221 385 122 
3 266 147 434 
3 335 187 42 
3 395 397 86 
3 373 298 71 
3 357 57 168 
3 341 47 164 
3 405 96 183 
3 413 101 186 
3 384 317 176 
3 349 234 52 
3 404 269 93 
3 408 253 97 
3 400 330 91 
3 430 134 255 
3 224 104 347 
3 286 419 114 
3 282 420 108 
3 220 424 123 
3 306 433 143 
3 249 126 355 
3 314 432 148 
3 193 106 191 
3 301 377 298 
3 41 401 330 
3 219 117 217 
3 260 141 258 
3 315 382 312 
3 331 411 101 
3 256 139 253 
3 205 113 202 
3 327 406 96 
3 369 65 284 
3 390 80 317 
3 271 402 269 
3 194 419 109 
3 300 430 140 
3 267 146 388 
3 236 426 127 
3 261 432 144 
3 189 415 102 
3 209 103 340 
3 311 157 396 
3 240 132 367 
3 245 430 136 
3 319 424 125 
3 276 129 362 
3 334 42 336 
3 394 86 326 
3 356 168 57 
3 363 64 280 
3 403 181 248 
3 383 79 304 
3 380 74 303 
3 387 81 321 
3 98 97 139 
3 342 164 47 
3 372 69 376 
3 409 184 275 
3 350 52 351 
3 435 445 150 
3 429 250 131 
3 438 450 159 
3 424 121 232 
3 415 104 416 
3 418 420 111 
3 103 417 105 
3 157 437 158 
3 132 428 135 
3 436 155 154 
3 422 122 119 
3 431 433 146 
3 129 427 426 
3 128 126 425 
