ply
format ascii 1.0
element vertex 602
property double x
property double y
property double z
element face 1200
property list uchar int vertex_indices
end_header
-0.116126 -0.138277 0.0671162 
-0.104217 -0.168931 0.0605681 
-0.0926801 -0.181256 0.0524604 
-0.111374 -0.135415 0.0638891 
-0.105836 -0.176807 0.0279825 
-0.103795 -0.190151 0.0292988 
-0.128995 -0.139075 0.0351367 
-0.129455 -0.150671 -0.000695489 
-0.0826467 -0.207725 0.0468783 
-0.102873 -0.196738 -1.50838e-05 
-0.115803 -0.164475 -0.000813727 
-0.0926233 -0.200807 -0.00221249 
-0.061085 -0.168243 0.10424 
-0.0544642 -0.180103 0.0924167 
-0.0636488 -0.1358 0.111294 
-0.0312057 -0.154305 0.116761 
-0.0342998 -0.15785 0.121597 
-0.0388098 -0.199821 0.0934599 
0.00145191 -0.177049 0.116195 
-1.93005e-05 -0.1726 0.111653 
-0.00087109 -0.137332 0.134102 
-0.0511845 -0.223426 0.0625343 
-0.0725236 -0.197296 0.0726462 
-0.0622079 -0.205387 0.0631545 
-0.0908197 -0.153609 0.0907854 
-0.0814373 -0.165571 0.0811592 
-0.0936737 -0.119369 0.0958669 
-0.077744 -0.225314 0.0114068 
-0.0703728 -0.220003 0.0264025 
-0.0399731 -0.245167 0.0400258 
-0.055384 -0.245001 0.00426754 
-0.0397372 -0.239349 0.0354545 
-0.0530822 -0.238676 0.00416555 
-0.010909 -0.22351 0.0799355 
-0.0280374 -0.219709 0.0699711 
0.00694407 -0.218001 0.0767509 
-0.00390087 -0.244451 0.0559052 
0.000263485 -0.239307 0.0537453 
-0.0247798 -0.193406 0.0943099 
-0.0465746 -0.2392 -0.0264945 
-0.024428 -0.245152 -0.0495884 
-0.101096 -0.106977 0.101056 
-0.123808 -0.105907 0.0718387 
-0.1191 -0.103176 0.0685169 
-0.138326 -0.106119 0.0366111 
-0.132979 -0.103071 0.0349746 
-0.141812 -0.07432 0.0392849 
-0.136748 -0.0719832 0.0363299 
-0.127449 -0.0570777 0.0754113 
-0.140914 -0.0379914 0.0397437 
-0.12255 -0.0510611 0.0708836 
-0.135627 -0.0300137 0.0357413 
-0.104219 -0.0728811 0.104413 
-0.0997184 -0.0721954 0.100089 
-0.103952 -0.0244062 0.102243 
-0.0996475 -0.03928 0.0996245 
-0.124463 -0.134824 0.0326172 
-0.134754 -0.118001 -0.00391499 
-0.142594 -0.107616 0.000943718 
-0.1416 -0.0735984 -0.00126979 
-0.147378 -0.0718644 -0.000465826 
-0.14145 -0.0421734 -0.0010868 
-0.14679 -0.0388324 -0.00155971 
-0.122498 -0.00583373 0.0711716 
-0.115327 0.00485601 0.0661874 
-0.113779 0.0256571 0.0667946 
-0.136709 -0.00827782 0.0376572 
-0.127057 0.0250037 0.0353995 
-0.122798 0.0225968 0.0313249 
-0.0995661 0.0546983 0.0498642 
-0.101648 0.056346 0.0585133 
-0.136223 -0.00768066 0.00228936 
-0.136586 0.0136303 -0.000521141 
-0.120381 0.0379164 0.00346135 
-0.112587 0.0563941 0.0316789 
-0.117071 0.0564287 -0.00174146 
-0.0698262 -0.120239 0.121749 
-0.0688253 -0.104343 0.118594 
-0.0352716 -0.103349 0.132817 
-0.0374672 -0.106278 0.137967 
-0.0741042 -0.0465043 0.127682 
-0.0704594 -0.0719901 0.122546 
-0.0696973 -0.0314749 0.121783 
-0.0395367 -0.0742481 0.141586 
-0.0360387 -0.0718258 0.136697 
-0.0364063 -0.0371631 0.136043 
-0.000651056 -0.107922 0.142306 
0.00218032 -0.116431 0.134925 
0.00218788 -0.0595902 0.142649 
0.000536882 -0.0728707 0.147333 
-0.0395515 -0.0181109 0.138818 
0.00161833 -0.0385932 0.146694 
-0.0951138 -0.00421484 0.0955056 
-0.0672976 0.0164648 0.117799 
-0.0594111 0.0404419 0.103434 
-0.0356332 -0.0080672 0.131466 
-0.0307736 0.0229377 0.122655 
-0.0588311 0.0553028 0.102112 
0.00034165 -0.00470166 0.141084 
-0.00166632 -0.0080925 0.136164 
-0.00201312 0.0305104 0.123726 
0.00195434 0.0258143 0.131631 
-0.0333947 0.0402135 0.121354 
-0.0251403 0.074158 0.0958292 
0.00142091 0.0562925 0.117096 
-0.0935024 0.0254192 0.0933665 
-0.0822204 0.0451368 0.0826747 
-0.0831626 0.0562793 0.0828479 
-0.0940198 0.084926 0.0264799 
-0.0976815 0.0843702 0.000680207 
-0.0953217 0.0788509 0.01099 
-0.0392582 0.0860425 0.0894268 
-0.00159334 0.0851208 0.0968374 
0.000320459 0.0765815 0.0967304 
-0.0804061 0.0853629 0.0556975 
-0.0756931 0.0816347 0.0542332 
-0.0467674 0.0802409 0.0809988 
-0.0445589 0.109837 0.0571346 
-0.061141 0.0970929 0.0448825 
-0.0329294 0.106107 0.0581694 
-0.0735174 0.102717 0.0291657 
-0.0745592 0.0983102 0.00839706 
-0.0519426 0.131754 0.0231201 
-0.052342 0.126855 0.00731588 
-0.0588554 0.128219 -0.00635964 
-0.042788 0.124292 0.033391 
-0.0095197 0.0979992 0.074803 
-0.018563 0.111657 0.0675816 
-0.00706167 0.127422 0.0520351 
-0.000515772 0.127825 0.0587382 
-0.0257104 0.149485 0.0408929 
-0.0276796 0.1396 0.0365491 
-0.0268994 0.175615 0.0172108 
-0.0347493 0.17771 0.0142157 
-0.0159694 0.177241 0.0339657 
-0.0279967 0.191511 -0.000803167 
-0.041186 0.166405 -0.00937954 
-0.0112613 0.176086 0.02965 
0.00223927 0.178651 0.0367662 
0.000495703 0.174305 0.0321633 
-0.0260805 0.204577 0.0202273 
-0.0313693 0.226369 0.0060267 
-0.0223634 0.228023 0.0137764 
-0.0325152 0.201342 -0.0056466 
-0.0110713 0.217734 0.0304839 
-0.00552286 0.223133 0.0260416 
-0.0244295 0.252109 0.0255922 
-0.0297796 0.25667 -0.00167449 
-0.0338321 0.254171 -0.00877083 
-0.0382428 0.265131 0.00394778 
-0.0309981 0.277591 0.0170658 
-0.00496199 0.251505 0.0345753 
0.00651583 0.215894 0.031698 
0.00368939 0.258755 0.0303847 
-0.017946 0.278829 0.0307227 
-0.0619349 0.353202 0.066 
-0.0453476 0.322603 0.0463716 
-0.0772366 0.351907 0.0465166 
-0.0351499 0.34991 0.0824074 
-0.0633687 0.347484 0.0465171 
-0.0474529 0.352893 0.0514454 
-0.0285493 0.347961 0.0742519 
-0.0354934 0.323856 0.0461879 
-0.0465873 0.300287 0.0214728 
-0.0561819 0.30885 -0.00677642 
-0.0543476 0.323881 0.0212412 
-0.0477426 0.307029 -0.00103058 
-0.0707939 0.330218 -0.00955326 
-0.0874904 0.353166 0.0243666 
-0.0747112 0.347797 0.0230863 
-0.0773023 0.347694 -0.000195561 
-0.088829 0.351068 -0.0153765 
-0.0755097 0.354945 -0.02706 
-0.0657387 0.330519 0.0285918 
-0.0656002 0.352957 0.024182 
-0.069876 0.351103 -0.0165784 
-0.0250814 0.320956 0.0587893 
0.000986807 0.320942 0.0633688 
-0.0109242 0.302441 0.0435971 
0.00598774 0.303267 0.0455755 
-0.0266718 0.354312 0.083866 
-0.014251 0.354419 0.0701348 
-0.00668176 0.350258 0.0682395 
0.0128135 0.350222 0.0888621 
0.0308524 0.348236 0.0741083 
0.0457895 0.353816 0.0785707 
-0.00816718 0.333811 0.0654982 
-0.0282116 0.286211 0.0355131 
-0.0442156 0.285203 0.00694314 
-0.00555524 0.285137 0.0444702 
0.0119224 0.254713 0.0328995 
-0.11559 -0.169783 -0.0316293 
-0.104905 -0.176858 -0.0313785 
-0.128414 -0.139816 -0.0356069 
-0.096283 -0.185691 -0.0554794 
-0.0933689 -0.178368 -0.0549782 
-0.111625 -0.135582 -0.0636802 
-0.115576 -0.139243 -0.0672192 
-0.0826136 -0.218467 -0.0217157 
-0.0726945 -0.217498 -0.0279229 
-0.0622021 -0.224474 -0.0494208 
-0.0466187 -0.245046 -0.03034 
-0.0468567 -0.218336 -0.0611336 
-0.0564755 -0.194996 -0.0782861 
-0.0779347 -0.187109 -0.0778337 
-0.0466619 -0.211922 -0.0782537 
-0.0814203 -0.165851 -0.0811479 
-0.094496 -0.138315 -0.0951222 
-0.0577057 -0.165457 -0.0996361 
-0.0599022 -0.168929 -0.104623 
-0.0647643 -0.135848 -0.110713 
-0.0200697 -0.239275 -0.0491135 
0.0165721 -0.239297 -0.0500352 
0.00620303 -0.245121 -0.055539 
-0.0218112 -0.222533 -0.0778002 
-0.0103801 -0.22165 -0.0731163 
0.0108159 -0.223589 -0.0796916 
-0.000735928 -0.183272 -0.112651 
0.00131507 -0.193939 -0.0974913 
-0.028962 -0.17889 -0.111497 
-0.0275739 -0.175614 -0.106305 
-0.0329637 -0.136958 -0.123453 
-0.0377971 -0.12253 -0.134618 
-0.00120741 -0.139499 -0.133414 
0.00139848 -0.149544 -0.123687 
-0.131162 -0.111368 -0.0367824 
-0.137128 -0.107651 -0.0378361 
-0.122988 -0.0914997 -0.0672372 
-0.138098 -0.0564708 -0.0370889 
-0.142355 -0.0711764 -0.0385255 
-0.141866 -0.0390719 -0.0386012 
-0.122093 -0.0427912 -0.0711896 
-0.0963596 -0.1137 -0.0948737 
-0.12818 -0.0817413 -0.0723234 
-0.100869 -0.106239 -0.101431 
-0.125526 -0.0218028 -0.0733496 
-0.106505 -0.0612782 -0.102879 
-0.100374 -0.0725062 -0.0996683 
-0.0991666 -0.0403145 -0.100292 
-0.137034 -0.00610052 -0.0369514 
-0.131152 -0.00758444 -0.034926 
-0.123592 0.0362923 -0.032678 
-0.121834 0.0233476 -0.0324492 
-0.117572 -0.00828367 -0.0681876 
-0.105243 0.0355139 -0.0602646 
-0.095488 0.0748001 -0.0246589 
-0.11012 0.0398788 -0.0626239 
-0.100544 -0.00583333 -0.099901 
-0.0934176 0.0266813 -0.0928186 
-0.0925497 0.00546175 -0.0953101 
-0.0673903 -0.137264 -0.116399 
-0.0715538 -0.106284 -0.124001 
-0.0688435 -0.103576 -0.118777 
-0.0733094 -0.0216756 -0.124891 
-0.0794455 0.0532047 -0.0787652 
-0.076823 0.0685712 -0.0787557 
-0.0664405 0.00226735 -0.115856 
-0.0638912 0.0369312 -0.110581 
-0.0558196 0.0524932 -0.097428 
-0.0351184 -0.104557 -0.132515 
-0.0746224 -0.0726205 -0.127167 
-0.0701413 -0.0716948 -0.122719 
-0.0707103 -0.039382 -0.122088 
-0.038822 -0.0755462 -0.141874 
-0.0363107 -0.0713351 -0.136712 
-0.038202 -0.0363755 -0.141118 
-0.00113992 -0.107684 -0.142591 
0.00307507 -0.105946 -0.13733 
6.80105e-05 -0.0749293 -0.147219 
0.00141796 -0.0617655 -0.142349 
-0.0327463 -0.0215412 -0.135595 
0.0010013 -0.0390691 -0.14673 
-0.0329487 0.0228604 -0.122202 
-0.0354869 0.0447137 -0.118965 
-0.0375256 -0.00428638 -0.135945 
-0.0016844 0.000728831 -0.134373 
0.000670511 0.014964 -0.136187 
-0.0248633 0.0761116 -0.0940753 
-0.000896541 0.0513705 -0.113054 
-5.43628e-06 0.0572523 -0.116747 
-0.0921607 0.084764 -0.035637 
-0.0689385 0.098002 -0.0296443 
-0.0739123 0.101485 -0.0319409 
-0.0816421 0.0795027 -0.0471708 
-0.0490262 0.131076 -0.0288538 
-0.0437007 0.0993674 -0.0596811 
-0.046755 0.108776 -0.0562507 
-0.0414559 0.127404 -0.0315363 
-0.0494731 0.128385 -0.0126798 
-0.059013 0.0817393 -0.0711265 
-0.0410418 0.0856457 -0.0892933 
-0.0321617 0.164363 -0.0155534 
-0.0283018 0.153325 -0.0362176 
-0.0229117 0.116876 -0.0549344 
-0.0201281 0.149276 -0.0351183 
-0.00734182 0.124254 -0.0616298 
-0.005375 0.154979 -0.0448438 
-0.00567418 0.139169 -0.0458991 
-0.00596064 0.175363 -0.0321954 
-0.0153216 0.10448 -0.076696 
-0.00178714 0.08046 -0.0930321 
0.00804032 0.109557 -0.0643823 
-6.8405e-05 0.0838354 -0.0989257 
-0.0218328 0.199284 -0.0166699 
-0.0271764 0.201609 -0.0194345 
-0.0141347 0.204514 -0.0293905 
-0.00463587 0.210429 -0.0277645 
0.00124357 0.207012 -0.0324558 
-0.0231304 0.242469 -0.0158956 
-0.0268237 0.253141 -0.0226438 
-0.0329796 0.279313 -0.0145964 
-0.00312953 0.236212 -0.0270856 
-0.0109775 0.253094 -0.0338699 
-0.0187925 0.277584 -0.0299133 
0.0137293 0.277785 -0.0393989 
0.000517878 0.276039 -0.0353458 
-0.0532252 0.322784 -0.0221026 
-0.0511703 0.321832 -0.0395069 
-0.0723157 0.348299 -0.0330865 
-0.0734289 0.350718 -0.053088 
-0.0404827 0.322735 -0.0398317 
-0.0502272 0.348335 -0.0610724 
-0.0373373 0.353681 -0.063228 
-0.0492542 0.353372 -0.0766966 
-0.0273373 0.35082 -0.0674675 
-0.036134 0.287683 -0.0287204 
-0.0196128 0.298694 -0.0467557 
-0.022475 0.322682 -0.0530064 
-0.0273697 0.328651 -0.0646562 
-0.00129427 0.298442 -0.0499434 
0.00551194 0.304615 -0.0467833 
-0.000176173 0.330573 -0.071089 
-0.0122489 0.348224 -0.0875033 
-0.0102304 0.347973 -0.0790569 
0.00441219 0.354298 -0.0895485 
0.0153826 0.347714 -0.0766423 
0.0102363 0.352491 -0.070167 
0.0301126 -0.182438 0.108895 
0.0292607 -0.154145 0.11775 
0.035705 -0.139191 0.128577 
0.0547074 -0.173016 0.0969653 
0.0567018 -0.18371 0.0969563 
0.0681777 -0.132072 0.117842 
0.0289844 -0.22496 0.0735658 
0.0335923 -0.245152 0.0445745 
0.0356935 -0.220523 0.0649464 
0.026176 -0.193958 0.0934143 
0.058707 -0.220779 0.0455775 
0.0411043 -0.239313 0.0330411 
0.0673382 -0.205615 0.0687545 
0.0685055 -0.193107 0.0697271 
0.0402234 -0.239272 -0.0338238 
0.040866 -0.24514 -0.0384203 
0.0493477 -0.245018 0.0246027 
0.0533542 -0.239323 -0.00367891 
0.0561185 -0.244219 -0.00444924 
0.0750491 -0.223083 0.0301487 
0.0950766 -0.186844 0.0553503 
0.0852867 -0.169097 0.0848404 
0.0812217 -0.164786 0.0819794 
0.0923369 -0.179813 0.0547038 
0.0947874 -0.138558 0.0946135 
0.116094 -0.138918 0.0666598 
0.110925 -0.135531 0.0643556 
0.112358 -0.176344 0.031108 
0.0813884 -0.210442 0.0215095 
0.0755204 -0.218954 -0.011745 
0.096317 -0.205749 0.000500273 
0.0980636 -0.193048 -0.00136178 
0.118149 -0.152739 0.0301499 
0.123446 -0.149805 -0.0028389 
0.128316 -0.153119 0.00191002 
0.0354738 -0.104801 0.132748 
0.0364692 -0.106013 0.137769 
0.0660785 -0.121428 0.115816 
0.0350211 -0.0691306 0.13769 
0.0385807 -0.0714453 0.142269 
0.0358739 -0.0438767 0.136868 
0.0386634 -0.0388487 0.141731 
0.073838 -0.071906 0.127514 
0.101599 -0.10603 0.100646 
0.0948773 -0.11689 0.0954582 
0.0733153 -0.0379253 0.127203 
0.0716276 -0.0561692 0.123227 
0.104169 -0.0725401 0.104266 
0.099887 -0.0719807 0.100105 
0.103021 -0.0371884 0.104275 
0.0367271 -0.0059091 0.136923 
0.0344648 0.0119852 0.126058 
0.0338469 0.0339223 0.124391 
0.0702157 -0.00589656 0.12309 
0.0243864 0.0747974 0.0953145 
0.0641002 0.0395487 0.109144 
0.0666158 0.000471189 0.116047 
0.0558594 0.0537284 0.0964116 
0.100048 -0.00609798 0.100271 
0.0894618 0.0228419 0.0890007 
0.0989078 -0.0197821 0.0968522 
0.0903216 0.0374941 0.0895878 
0.12003 -0.0935138 0.0702471 
0.127249 -0.0738075 0.074065 
0.117277 -0.000567229 0.0660054 
0.0788917 0.0530814 0.0793232 
0.108881 0.0417244 0.0623183 
0.0978396 0.0524698 0.0549572 
0.11791 0.0331131 0.032696 
0.113457 0.0549835 0.031974 
0.123995 -0.106578 0.0712188 
0.132394 -0.104835 0.0349213 
0.135357 -0.120418 0.036389 
0.122177 -0.0394866 0.0701768 
0.12691 -0.0401107 0.0732166 
0.136546 -0.071085 0.0363871 
0.141941 -0.0751934 0.0385065 
0.137363 -0.105082 -0.00279824 
0.14248 -0.108185 0.000175379 
0.147268 -0.0737182 2.52296e-05 
0.135465 -0.0223022 0.0341487 
0.140425 -0.0258117 0.0365844 
0.146447 -0.0368857 -0.000776357 
0.141607 -0.072178 -0.00174015 
0.139609 -0.0250112 0.00242717 
0.122041 -0.00559156 0.0714286 
0.127507 0.0248778 0.0330154 
0.14098 -0.00396738 -0.000395853 
0.120813 0.038789 0.000805017 
0.0908647 0.0795876 0.0248138 
0.124338 0.0435722 -0.00074713 
0.0259566 0.0831922 0.0957893 
0.0290948 0.0981824 0.0689849 
0.0187623 0.111084 0.0681963 
0.0163558 0.129588 0.0476449 
0.0494798 0.0838266 0.0855112 
0.0476382 0.080499 0.0801831 
0.0375462 0.106832 0.0644305 
0.0316786 0.12792 0.0407723 
0.0608486 0.103614 0.0490981 
0.0747066 0.0816418 0.0550246 
0.0572761 0.0989896 0.046522 
0.0181909 0.15165 0.0430307 
0.0500663 0.124641 0.0368443 
0.0150658 0.173197 0.0284096 
0.0187032 0.182861 0.0315593 
0.0613342 0.107088 0.0252345 
0.042431 0.139699 0.0172501 
0.0382022 0.15776 0.0225546 
0.0469024 0.150174 0.00517633 
0.0255832 0.174105 0.019516 
0.0320022 0.174963 0.00473063 
0.0448293 0.141114 -0.00550983 
0.0755491 0.0848411 0.0629402 
0.0950456 0.0841155 0.0261356 
0.0787661 0.102887 0.0104962 
0.0589761 0.117351 0.00516609 
0.075208 0.0971648 -0.0109386 
0.0672192 0.11695 -0.0010524 
0.0995536 0.0828923 7.26462e-06 
0.0928832 0.0807215 -0.0145092 
0.0237365 0.203638 0.0230301 
0.011618 0.222697 0.023424 
0.0230977 0.225209 0.0123606 
0.0281513 0.227396 0.0156281 
0.0349 0.190187 0.00299544 
0.0259236 0.226342 -0.00669674 
0.0321791 0.230744 -0.00262373 
0.0209279 0.278371 0.0282864 
0.0303243 0.273655 0.0264384 
0.0310634 0.278356 0.0168503 
0.0294178 0.255871 -0.0022077 
0.0387764 0.276831 0.0139495 
0.040797 0.277027 -0.000999371 
0.0207962 0.301719 0.0475091 
0.027225 0.329937 0.0658792 
0.022495 0.334415 0.0626193 
0.0378454 0.325018 0.0450977 
0.0431308 0.353732 0.0532062 
0.0440878 0.349111 0.0554257 
0.0447181 0.320087 0.0443892 
0.0720019 0.352016 0.0556231 
0.0591192 0.32146 0.0249895 
0.0464402 0.312156 0.0210143 
0.0467102 0.304857 -0.00585266 
0.0648413 0.322951 -0.0068465 
0.067717 0.348345 0.0396508 
0.0881053 0.354677 0.00744066 
0.0748949 0.347528 0.0179465 
0.0876475 0.349159 0.0129947 
0.0699415 0.354531 0.0200109 
0.0655229 0.350275 0.0204567 
0.0767468 0.34727 -0.0112241 
0.0709191 0.348854 -0.0354367 
0.065465 0.353676 -0.0275475 
0.0596336 -0.219367 -0.0468086 
0.0479246 -0.225318 -0.0625349 
0.028874 -0.218663 -0.0709872 
0.0271199 -0.197331 -0.0986461 
0.0583385 -0.182448 -0.0973599 
0.0484522 -0.193328 -0.0847825 
0.0765111 -0.189732 -0.0766949 
0.0272766 -0.17613 -0.106449 
0.0569533 -0.16481 -0.100584 
0.0734343 -0.223501 -0.0329562 
0.0847656 -0.193226 -0.0485661 
0.0883632 -0.197283 -0.0518467 
0.0978489 -0.197951 -0.028013 
0.10302 -0.181522 -0.0262924 
0.104829 -0.156196 -0.0586483 
0.104405 -0.168455 -0.0605284 
0.0778802 -0.173174 -0.0792782 
0.0899727 -0.136672 -0.0910334 
0.0968327 -0.126053 -0.0991721 
0.034244 -0.15628 -0.122058 
0.0672852 -0.138824 -0.115727 
0.124719 -0.150333 -0.0345196 
0.130252 -0.121841 -0.0307109 
0.121281 -0.118521 -0.0713568 
0.0652787 -0.113153 -0.11895 
0.0724082 -0.107203 -0.123066 
0.0994031 -0.083434 -0.099598 
0.118701 -0.105901 -0.06811 
0.104346 -0.0736589 -0.104312 
0.0710324 -0.0509293 -0.122972 
0.0995983 -0.0384219 -0.0994054 
0.103847 -0.0379115 -0.103963 
0.0557789 0.0525346 -0.0973395 
0.0680312 0.0084205 -0.112754 
0.0970896 0.052922 -0.0557369 
0.128218 -0.049446 -0.0739333 
0.0959152 -0.00782738 -0.096128 
0.10043 -0.00567605 -0.100047 
0.0739739 -0.0206142 -0.12519 
0.117764 -0.00765242 -0.0675802 
0.109433 0.0231718 -0.0627906 
0.122788 -0.00649138 -0.0710507 
0.0886744 0.0396662 -0.0903555 
0.0849137 0.0379834 -0.0849093 
0.0658383 0.0264091 -0.114153 
0.0588222 0.0564814 -0.10158 
0.108345 0.0417594 -0.063772 
0.0322664 -0.134166 -0.125103 
0.0349015 -0.0804871 -0.137037 
0.0384784 -0.106032 -0.137501 
0.0390494 -0.0712872 -0.142104 
0.0356437 -0.0418925 -0.136804 
0.0733613 -0.072807 -0.127945 
0.0387056 -0.0379753 -0.141632 
0.0368693 -0.00627671 -0.137 
0.0346135 -0.00889817 -0.131767 
0.0292613 0.0371823 -0.11711 
0.0313353 0.0486722 -0.117548 
0.137334 -0.106513 -0.0378165 
0.142099 -0.0718441 -0.0388821 
0.13734 -0.0726158 -0.0352266 
0.136509 -0.040169 -0.0357953 
0.141734 -0.0378156 -0.0383711 
0.122792 -0.0540912 -0.0712777 
0.126971 0.0102823 -0.0343254 
0.137163 -0.00724773 -0.0369416 
0.127582 0.0245737 -0.0348855 
0.108396 0.0530385 -0.0280005 
0.113406 0.0556986 -0.0312699 
0.0466783 0.098169 -0.0584091 
0.0345289 0.118654 -0.0467958 
0.017954 0.153047 -0.0424494 
0.0413787 0.111928 -0.0574216 
0.0114288 0.175501 -0.0296552 
0.0159813 0.141478 -0.0420704 
0.0197046 0.110929 -0.0684115 
0.0277239 0.176169 -0.0159495 
0.036448 0.138792 -0.0281904 
0.0544872 0.117933 -0.0224077 
0.0426886 0.153486 -0.0162723 
0.0578769 0.121972 -0.0266596 
0.0401131 0.144016 -0.0311883 
0.0644998 0.101329 -0.0483452 
0.0265202 0.17787 -0.0262267 
0.0335392 0.0802681 -0.0881173 
0.0368398 0.0851996 -0.0913843 
0.0660335 0.0799219 -0.0666651 
0.0703845 0.0836714 -0.0698902 
0.0789775 0.0819797 -0.045455 
0.0907122 0.0848355 -0.0388015 
0.0183675 0.214296 -0.0193687 
0.0146093 0.203309 -0.0295905 
0.028758 0.203372 -0.0162515 
0.0138234 0.254003 -0.0255541 
0.0257826 0.2553 -0.0248529 
0.0128839 0.24099 -0.0311553 
0.0285092 0.282987 -0.0244366 
0.0386753 0.280137 -0.0173878 
0.0371909 0.301404 -0.0361736 
0.0262092 0.32169 -0.0588209 
0.0352288 0.323331 -0.0460622 
0.0515566 0.309266 -0.0238079 
0.0516099 0.324956 -0.0280994 
0.0568589 0.330735 -0.0441829 
0.0441946 0.353732 -0.0567426 
0.0487963 0.347484 -0.0603454 
0.0326438 0.348126 -0.0817247 
0.0603349 0.352919 -0.0676894 
0.0840113 0.351284 -0.0336296 
0.0602031 0.350211 -0.0364725 
3 2 4 3 
3 0 6 1 
3 5 6 7 
3 5 1 6 
3 5 7 9 
3 17 16 12 
3 15 13 14 
3 17 22 21 
3 25 23 2 
3 22 24 1 
3 17 12 22 
3 14 13 26 
3 12 24 22 
3 13 23 25 
3 22 1 8 
3 22 8 21 
3 5 27 8 
3 4 2 28 
3 27 5 9 
3 27 30 29 
3 8 27 29 
3 21 8 29 
3 28 23 31 
3 2 23 28 
3 32 28 31 
3 11 28 32 
3 8 1 5 
3 4 11 10 
3 4 28 11 
3 21 33 17 
3 34 31 23 
3 23 13 34 
3 21 29 33 
3 33 29 36 
3 34 37 31 
3 34 35 37 
3 15 38 13 
3 38 34 13 
3 17 18 16 
3 38 15 19 
3 38 35 34 
3 18 17 33 
3 35 38 19 
3 32 31 39 
3 24 41 0 
3 24 0 1 
3 44 0 42 
3 43 3 45 
3 0 41 42 
3 26 3 43 
3 48 49 46 
3 47 51 50 
3 50 53 43 
3 42 52 48 
3 52 54 48 
3 43 47 50 
3 44 42 46 
3 45 47 43 
3 42 48 46 
3 6 0 44 
3 6 44 7 
3 56 57 45 
3 44 58 7 
3 56 3 4 
3 56 45 3 
3 4 10 56 
3 56 10 57 
3 44 46 58 
3 45 59 47 
3 47 61 51 
3 46 49 62 
3 58 46 60 
3 57 59 45 
3 47 59 61 
3 46 62 60 
3 54 63 48 
3 50 55 53 
3 55 50 64 
3 50 51 64 
3 48 63 49 
3 63 66 49 
3 66 63 67 
3 63 65 67 
3 54 65 63 
3 64 68 69 
3 51 71 68 
3 49 72 62 
3 51 61 71 
3 49 66 72 
3 64 51 68 
3 66 67 72 
3 65 70 74 
3 65 74 67 
3 68 71 73 
3 72 67 74 
3 74 75 72 
3 68 73 69 
3 76 41 24 
3 26 77 14 
3 12 76 24 
3 14 77 78 
3 41 76 52 
3 77 26 53 
3 80 54 52 
3 53 82 81 
3 79 83 76 
3 81 85 84 
3 81 82 85 
3 77 53 81 
3 52 76 80 
3 78 77 81 
3 81 84 78 
3 76 83 80 
3 76 12 16 
3 16 79 76 
3 14 78 15 
3 79 16 20 
3 20 86 79 
3 78 88 87 
3 15 87 19 
3 15 78 87 
3 20 16 18 
3 79 89 83 
3 79 86 89 
3 78 84 88 
3 83 91 90 
3 84 85 88 
3 83 89 91 
3 82 55 92 
3 54 80 93 
3 92 94 82 
3 82 95 85 
3 90 93 80 
3 82 94 95 
3 95 94 96 
3 83 90 80 
3 90 91 98 
3 85 99 88 
3 85 95 99 
3 95 96 99 
3 90 98 102 
3 93 90 102 
3 93 102 97 
3 96 94 103 
3 99 96 100 
3 98 101 102 
3 96 103 100 
3 102 101 104 
3 3 26 25 
3 3 25 2 
3 25 26 13 
3 41 52 42 
3 43 53 26 
3 82 53 55 
3 64 92 55 
3 105 65 54 
3 92 64 106 
3 105 54 93 
3 65 105 107 
3 64 69 106 
3 65 107 70 
3 92 106 94 
3 105 93 97 
3 97 107 105 
3 70 108 74 
3 108 109 74 
3 74 109 75 
3 102 111 97 
3 111 102 112 
3 100 103 113 
3 104 112 102 
3 70 107 114 
3 107 97 111 
3 106 116 94 
3 106 69 115 
3 107 111 114 
3 106 115 116 
3 114 111 117 
3 116 115 119 
3 115 118 119 
3 70 114 108 
3 69 110 115 
3 115 110 121 
3 114 120 108 
3 69 73 110 
3 108 120 109 
3 114 117 120 
3 121 118 115 
3 118 121 123 
3 117 122 120 
3 118 123 125 
3 120 124 109 
3 120 122 124 
3 94 116 103 
3 111 127 117 
3 103 116 126 
3 116 119 126 
3 103 126 113 
3 111 112 127 
3 112 129 127 
3 119 128 126 
3 117 127 130 
3 119 118 125 
3 119 125 131 
3 117 130 122 
3 130 133 122 
3 125 123 135 
3 122 136 124 
3 133 136 122 
3 131 125 132 
3 125 135 132 
3 131 128 119 
3 131 137 128 
3 132 137 131 
3 127 129 130 
3 130 129 138 
3 130 138 134 
3 128 137 139 
3 130 140 133 
3 133 140 141 
3 132 135 142 
3 133 141 143 
3 134 138 144 
3 137 145 139 
3 140 130 134 
3 140 134 144 
3 132 142 137 
3 142 145 137 
3 140 146 141 
3 142 135 147 
3 141 148 143 
3 141 146 149 
3 141 149 148 
3 142 147 150 
3 146 144 151 
3 151 144 152 
3 145 154 153 
3 144 146 140 
3 145 142 150 
3 145 150 154 
3 168 172 171 
3 165 159 162 
3 157 173 156 
3 157 168 173 
3 157 174 168 
3 157 155 174 
3 169 159 165 
3 157 156 155 
3 155 160 174 
3 159 169 174 
3 159 174 160 
3 173 168 167 
3 165 170 169 
3 173 167 163 
3 165 166 170 
3 164 163 167 
3 168 174 172 
3 169 170 175 
3 172 174 175 
3 169 175 174 
3 156 176 155 
3 176 158 155 
3 158 180 155 
3 180 160 155 
3 180 181 160 
3 161 162 159 
3 159 160 161 
3 161 160 182 
3 181 182 160 
3 158 177 183 
3 158 183 180 
3 180 183 185 
3 180 185 181 
3 186 162 161 
3 178 162 186 
3 179 178 186 
3 176 177 158 
3 161 182 184 
3 146 187 163 
3 154 150 165 
3 156 163 187 
3 187 176 156 
3 154 165 162 
3 163 188 149 
3 150 147 166 
3 163 149 146 
3 164 188 163 
3 150 166 165 
3 146 151 189 
3 146 189 187 
3 151 190 189 
3 154 178 153 
3 178 179 153 
3 187 189 176 
3 154 162 178 
3 189 177 176 
3 173 163 156 
3 7 193 191 
3 9 7 191 
3 11 192 10 
3 192 195 196 
3 191 193 197 
3 191 197 194 
3 9 198 27 
3 32 39 199 
3 201 30 198 
3 30 27 198 
3 11 32 199 
3 198 200 201 
3 198 194 200 
3 199 202 195 
3 9 191 198 
3 199 192 11 
3 198 191 194 
3 192 199 195 
3 195 202 203 
3 200 204 205 
3 194 204 200 
3 194 197 207 
3 194 207 204 
3 207 209 204 
3 195 203 206 
3 204 209 205 
3 206 203 208 
3 30 201 29 
3 29 201 40 
3 199 39 202 
3 200 40 201 
3 31 211 39 
3 39 211 202 
3 29 40 213 
3 31 212 211 
3 40 200 205 
3 205 214 40 
3 211 215 202 
3 40 214 213 
3 211 212 215 
3 213 214 216 
3 214 217 216 
3 205 209 219 
3 203 220 208 
3 205 219 214 
3 203 202 220 
3 215 220 202 
3 214 219 217 
3 215 218 220 
3 209 222 219 
3 208 220 221 
3 219 223 217 
3 218 224 220 
3 7 58 193 
3 193 58 226 
3 10 192 57 
3 57 192 225 
3 192 196 225 
3 225 196 227 
3 225 228 57 
3 58 229 226 
3 57 228 59 
3 60 229 58 
3 59 228 61 
3 225 227 228 
3 60 230 229 
3 228 227 231 
3 193 226 197 
3 226 233 197 
3 197 233 234 
3 197 234 207 
3 196 232 227 
3 226 229 233 
3 229 230 233 
3 233 236 234 
3 232 237 227 
3 227 237 231 
3 233 235 236 
3 231 237 238 
3 60 62 230 
3 62 239 230 
3 62 72 239 
3 71 61 240 
3 71 240 242 
3 230 239 235 
3 61 228 240 
3 240 228 243 
3 243 244 240 
3 239 72 241 
3 71 242 73 
3 72 75 241 
3 73 242 245 
3 242 240 244 
3 241 246 239 
3 245 242 244 
3 233 230 235 
3 228 231 243 
3 235 248 247 
3 236 235 247 
3 231 238 243 
3 239 246 235 
3 235 246 248 
3 243 249 244 
3 195 206 196 
3 206 232 196 
3 208 210 206 
3 209 207 250 
3 232 206 210 
3 207 234 251 
3 232 252 237 
3 238 249 243 
3 244 249 254 
3 248 246 255 
3 249 258 254 
3 256 258 249 
3 248 255 257 
3 207 251 250 
3 209 250 222 
3 221 210 208 
3 210 259 252 
3 232 210 252 
3 251 222 250 
3 234 260 251 
3 234 236 260 
3 238 237 262 
3 237 261 262 
3 237 252 261 
3 251 260 263 
3 222 251 263 
3 263 260 265 
3 221 259 210 
3 219 222 223 
3 221 220 224 
3 221 224 259 
3 222 266 223 
3 259 224 267 
3 252 259 264 
3 252 264 261 
3 222 263 268 
3 259 269 264 
3 261 264 262 
3 264 270 262 
3 222 268 266 
3 259 267 269 
3 264 269 270 
3 263 271 268 
3 236 247 253 
3 238 262 249 
3 249 262 256 
3 236 253 260 
3 262 270 256 
3 260 253 265 
3 247 257 253 
3 247 248 257 
3 253 257 273 
3 256 272 258 
3 256 270 272 
3 253 273 274 
3 253 274 265 
3 263 265 271 
3 269 275 270 
3 265 274 271 
3 274 276 271 
3 258 272 277 
3 272 278 277 
3 270 275 272 
3 274 273 276 
3 273 279 276 
3 272 275 278 
3 73 245 110 
3 75 280 241 
3 75 109 280 
3 110 245 121 
3 109 282 280 
3 121 245 281 
3 244 283 245 
3 241 280 246 
3 245 283 281 
3 109 124 282 
3 281 283 285 
3 280 282 286 
3 281 285 287 
3 121 288 123 
3 121 281 288 
3 281 287 288 
3 282 124 284 
3 282 284 286 
3 244 254 283 
3 280 255 246 
3 283 254 289 
3 280 286 255 
3 283 289 285 
3 286 290 255 
3 254 258 289 
3 255 290 257 
3 123 288 291 
3 124 136 284 
3 288 287 291 
3 286 284 292 
3 287 285 293 
3 293 294 287 
3 286 296 295 
3 286 292 296 
3 285 289 277 
3 286 299 290 
3 289 258 277 
3 257 290 273 
3 285 277 300 
3 285 300 293 
3 293 300 301 
3 273 290 302 
3 302 290 299 
3 286 295 299 
3 293 297 294 
3 293 301 297 
3 123 291 135 
3 284 136 292 
3 136 143 304 
3 136 304 292 
3 136 133 143 
3 291 303 135 
3 291 294 303 
3 291 287 294 
3 294 298 303 
3 292 304 305 
3 292 305 296 
3 294 297 298 
3 296 305 307 
3 303 298 306 
3 135 303 308 
3 148 309 143 
3 135 308 147 
3 143 309 304 
3 310 147 308 
3 303 306 308 
3 304 309 312 
3 308 306 311 
3 308 313 310 
3 308 311 313 
3 305 304 312 
3 305 312 307 
3 313 311 315 
3 273 302 279 
3 278 300 277 
3 167 168 171 
3 171 172 319 
3 167 171 319 
3 170 166 316 
3 164 167 317 
3 318 170 316 
3 170 318 175 
3 319 317 167 
3 172 323 319 
3 322 323 172 
3 172 175 322 
3 318 316 320 
3 175 318 322 
3 320 321 318 
3 318 324 322 
3 318 321 324 
3 147 310 166 
3 149 325 148 
3 148 325 309 
3 149 188 164 
3 166 310 316 
3 149 164 325 
3 310 320 316 
3 164 317 325 
3 309 325 312 
3 310 313 320 
3 325 317 326 
3 320 313 327 
3 312 325 326 
3 312 329 314 
3 312 326 329 
3 313 315 327 
3 315 330 327 
3 326 317 328 
3 326 331 329 
3 317 319 323 
3 317 323 328 
3 320 327 321 
3 328 323 332 
3 327 333 321 
3 321 333 324 
3 323 322 334 
3 323 334 332 
3 326 328 331 
3 327 330 335 
3 328 332 331 
3 327 335 333 
3 324 336 322 
3 322 336 334 
3 337 341 342 
3 337 33 343 
3 35 345 37 
3 344 343 36 
3 36 343 33 
3 345 35 346 
3 345 347 348 
3 343 349 341 
3 343 344 349 
3 33 337 18 
3 35 19 346 
3 346 19 338 
3 337 343 341 
3 346 340 345 
3 346 338 340 
3 36 29 344 
3 37 212 31 
3 37 351 212 
3 29 352 344 
3 345 348 37 
3 344 352 353 
3 37 348 354 
3 37 354 351 
3 350 347 345 
3 349 356 357 
3 340 350 345 
3 349 358 341 
3 340 359 350 
3 350 360 347 
3 358 361 341 
3 357 358 349 
3 359 360 350 
3 358 357 362 
3 358 362 361 
3 360 359 363 
3 347 365 348 
3 344 356 349 
3 344 353 356 
3 354 348 365 
3 353 355 356 
3 365 366 354 
3 356 355 367 
3 347 360 365 
3 365 368 366 
3 357 356 364 
3 365 360 369 
3 356 367 364 
3 365 369 368 
3 368 369 370 
3 357 364 362 
3 364 367 371 
3 338 87 372 
3 20 339 86 
3 339 373 86 
3 19 87 338 
3 18 339 20 
3 337 339 18 
3 338 372 374 
3 337 342 339 
3 338 374 340 
3 339 342 373 
3 87 88 375 
3 87 375 372 
3 86 376 89 
3 88 377 375 
3 89 376 378 
3 86 373 376 
3 342 379 373 
3 342 361 380 
3 373 379 376 
3 376 382 378 
3 377 383 375 
3 376 379 382 
3 374 372 383 
3 372 375 383 
3 342 380 379 
3 380 384 379 
3 374 383 381 
3 381 383 385 
3 379 384 382 
3 89 378 91 
3 91 378 387 
3 377 88 99 
3 91 387 98 
3 99 388 377 
3 387 378 390 
3 98 389 101 
3 98 387 389 
3 99 100 388 
3 101 389 104 
3 388 100 391 
3 387 390 389 
3 391 394 388 
3 378 382 390 
3 377 393 383 
3 377 388 393 
3 382 395 390 
3 390 395 392 
3 382 384 386 
3 385 383 397 
3 383 393 397 
3 386 395 382 
3 389 390 392 
3 388 394 393 
3 394 396 393 
3 392 395 398 
3 342 341 361 
3 340 374 359 
3 359 374 381 
3 359 381 363 
3 384 380 400 
3 393 396 397 
3 397 396 401 
3 394 402 396 
3 396 402 404 
3 380 361 407 
3 362 407 361 
3 381 399 363 
3 363 399 408 
3 381 385 399 
3 380 407 400 
3 384 400 386 
3 400 411 386 
3 407 409 413 
3 407 413 400 
3 385 410 399 
3 399 410 412 
3 400 413 411 
3 364 409 362 
3 363 408 369 
3 360 363 369 
3 362 409 407 
3 364 371 409 
3 369 414 370 
3 369 408 414 
3 409 371 415 
3 408 399 412 
3 413 409 416 
3 412 410 417 
3 413 418 411 
3 413 419 418 
3 409 415 416 
3 408 412 420 
3 408 420 414 
3 413 416 419 
3 412 417 421 
3 412 421 420 
3 385 397 410 
3 410 397 401 
3 386 411 422 
3 386 422 395 
3 410 401 417 
3 395 422 398 
3 422 403 398 
3 396 404 401 
3 401 404 405 
3 417 401 405 
3 411 418 422 
3 422 418 423 
3 424 423 418 
3 419 424 418 
3 421 417 425 
3 422 423 403 
3 403 423 406 
3 405 425 417 
3 423 427 406 
3 424 427 423 
3 100 113 391 
3 104 389 428 
3 389 392 428 
3 104 428 112 
3 113 126 391 
3 126 429 391 
3 428 430 112 
3 126 431 429 
3 392 432 428 
3 394 391 433 
3 432 434 428 
3 428 434 430 
3 391 429 433 
3 429 431 435 
3 432 436 434 
3 429 435 438 
3 433 429 438 
3 433 438 437 
3 112 430 129 
3 126 128 431 
3 430 434 439 
3 129 430 439 
3 434 436 440 
3 138 129 439 
3 431 128 139 
3 431 139 441 
3 434 440 439 
3 435 444 443 
3 439 440 445 
3 439 445 442 
3 435 447 444 
3 444 447 448 
3 440 446 445 
3 444 448 449 
3 394 433 402 
3 392 398 432 
3 398 450 432 
3 402 433 437 
3 436 432 450 
3 398 403 450 
3 402 437 404 
3 443 437 438 
3 443 453 454 
3 404 437 426 
3 406 451 403 
3 450 403 451 
3 405 404 426 
3 436 450 451 
3 436 451 452 
3 406 456 451 
3 425 426 457 
3 443 426 437 
3 443 457 426 
3 457 443 454 
3 456 452 451 
3 438 435 443 
3 452 440 436 
3 443 444 453 
3 452 455 440 
3 455 446 440 
3 444 449 453 
3 439 442 138 
3 431 441 435 
3 435 441 447 
3 139 459 441 
3 139 145 459 
3 138 152 144 
3 138 442 152 
3 442 458 152 
3 441 459 447 
3 447 459 460 
3 442 445 458 
3 445 446 462 
3 447 460 448 
3 445 462 458 
3 458 462 461 
3 462 464 461 
3 448 460 463 
3 152 190 151 
3 152 458 190 
3 145 153 459 
3 153 465 459 
3 458 461 190 
3 459 467 460 
3 461 466 190 
3 463 460 468 
3 466 461 469 
3 461 464 469 
3 460 467 468 
3 469 464 470 
3 405 426 425 
3 456 406 427 
3 472 183 177 
3 471 472 177 
3 179 186 473 
3 179 473 474 
3 184 186 161 
3 184 473 186 
3 181 475 182 
3 181 185 475 
3 182 476 184 
3 476 182 475 
3 184 474 473 
3 472 477 478 
3 472 185 183 
3 472 478 185 
3 153 179 465 
3 190 471 189 
3 190 466 471 
3 189 471 177 
3 179 474 465 
3 471 466 477 
3 465 474 467 
3 474 480 467 
3 477 466 479 
3 459 465 467 
3 467 481 468 
3 466 469 479 
3 479 470 482 
3 469 470 479 
3 480 481 467 
3 471 477 472 
3 474 184 483 
3 184 476 483 
3 185 484 475 
3 185 478 484 
3 477 479 478 
3 480 474 483 
3 475 484 487 
3 476 488 483 
3 476 475 488 
3 475 487 488 
3 479 486 478 
3 483 485 480 
3 480 485 481 
3 485 489 481 
3 479 482 486 
3 483 488 485 
3 488 490 485 
3 488 487 491 
3 488 491 490 
3 490 489 485 
3 486 484 478 
3 29 213 352 
3 353 352 355 
3 351 492 494 
3 212 494 215 
3 213 216 493 
3 215 494 218 
3 217 495 216 
3 212 351 494 
3 352 213 493 
3 216 496 493 
3 216 495 496 
3 494 499 218 
3 494 497 499 
3 499 497 500 
3 354 492 351 
3 355 501 367 
3 355 352 501 
3 354 366 492 
3 352 493 501 
3 366 502 492 
3 493 498 501 
3 501 498 503 
3 501 504 367 
3 501 503 504 
3 368 505 366 
3 366 505 502 
3 505 506 502 
3 504 503 507 
3 494 492 497 
3 492 508 497 
3 502 508 492 
3 496 498 493 
3 497 508 500 
3 508 509 500 
3 502 506 508 
3 503 498 507 
3 507 498 510 
3 496 510 498 
3 218 499 224 
3 217 511 495 
3 495 511 496 
3 511 512 496 
3 367 504 513 
3 368 370 505 
3 367 513 371 
3 505 370 514 
3 504 507 513 
3 505 514 506 
3 496 512 510 
3 512 517 510 
3 510 515 507 
3 506 509 508 
3 516 509 518 
3 522 521 518 
3 521 528 525 
3 528 521 522 
3 527 523 529 
3 528 535 525 
3 537 534 536 
3 535 532 526 
3 530 534 529 
3 532 535 528 
3 533 529 538 
3 538 529 534 
3 525 535 524 
3 217 223 511 
3 224 539 267 
3 499 539 224 
3 499 500 539 
3 539 500 516 
3 511 541 512 
3 541 517 512 
3 511 223 541 
3 267 539 540 
3 223 266 541 
3 540 539 516 
3 267 540 269 
3 269 540 543 
3 268 542 266 
3 268 271 542 
3 266 542 541 
3 542 544 541 
3 542 545 544 
3 509 516 500 
3 517 520 510 
3 516 521 540 
3 540 521 543 
3 541 544 517 
3 544 545 530 
3 516 518 521 
3 520 517 544 
3 520 544 530 
3 269 543 275 
3 543 547 275 
3 276 546 271 
3 271 545 542 
3 271 546 545 
3 548 275 547 
3 275 548 278 
3 279 549 276 
3 547 525 548 
3 549 546 276 
3 536 546 549 
3 549 537 536 
3 548 525 524 
3 543 521 547 
3 525 547 521 
3 530 545 546 
3 546 536 530 
3 520 530 523 
3 523 530 529 
3 530 536 534 
3 513 515 550 
3 371 513 550 
3 371 550 415 
3 370 414 514 
3 414 420 552 
3 514 414 552 
3 415 551 416 
3 420 553 552 
3 416 554 419 
3 416 551 554 
3 421 553 420 
3 550 551 415 
3 515 551 550 
3 519 509 506 
3 507 515 513 
3 506 514 519 
3 519 518 509 
3 515 510 520 
3 514 552 519 
3 515 520 527 
3 552 555 519 
3 518 519 555 
3 555 522 518 
3 527 551 515 
3 551 527 554 
3 419 554 557 
3 419 557 424 
3 421 425 556 
3 421 556 553 
3 553 556 531 
3 557 554 533 
3 425 559 556 
3 558 560 427 
3 532 531 556 
3 557 538 558 
3 533 538 557 
3 556 559 532 
3 526 532 559 
3 560 558 538 
3 427 424 558 
3 424 557 558 
3 552 553 555 
3 527 533 554 
3 531 532 528 
3 555 553 531 
3 520 523 527 
3 522 531 528 
3 522 555 531 
3 533 527 529 
3 566 297 301 
3 296 563 567 
3 297 566 298 
3 566 565 298 
3 565 569 568 
3 301 562 566 
3 449 568 569 
3 448 568 449 
3 570 449 569 
3 572 573 571 
3 569 566 562 
3 569 562 570 
3 572 564 573 
3 570 562 561 
3 572 574 564 
3 569 565 566 
3 573 563 575 
3 573 575 571 
3 573 564 563 
3 295 567 299 
3 300 548 576 
3 299 567 577 
3 302 299 577 
3 301 300 576 
3 578 561 576 
3 564 579 577 
3 564 574 579 
3 548 524 576 
3 549 577 537 
3 567 564 577 
3 576 561 301 
3 564 567 563 
3 295 296 567 
3 301 561 562 
3 572 455 574 
3 570 561 580 
3 570 580 454 
3 579 574 581 
3 457 559 425 
3 560 581 456 
3 581 455 452 
3 456 581 452 
3 580 526 457 
3 526 559 457 
3 560 538 581 
3 454 580 457 
3 574 455 581 
3 570 453 449 
3 571 446 455 
3 571 455 572 
3 454 453 570 
3 526 578 535 
3 561 578 580 
3 576 524 578 
3 524 535 578 
3 579 534 537 
3 537 577 579 
3 580 578 526 
3 581 538 579 
3 534 579 538 
3 565 568 582 
3 575 583 584 
3 296 583 563 
3 296 307 583 
3 583 575 563 
3 298 565 306 
3 565 582 306 
3 446 571 462 
3 462 571 584 
3 462 584 464 
3 463 568 448 
3 568 463 582 
3 571 575 584 
3 583 586 584 
3 583 587 586 
3 582 463 585 
3 307 587 583 
3 307 312 587 
3 306 582 585 
3 306 585 311 
3 311 585 315 
3 312 314 587 
3 464 584 586 
3 468 588 463 
3 470 464 589 
3 464 586 589 
3 300 278 548 
3 302 549 279 
3 549 302 577 
3 456 427 560 
3 463 588 585 
3 314 586 587 
3 315 585 330 
3 330 585 588 
3 590 586 314 
3 314 329 591 
3 588 592 330 
3 468 481 588 
3 590 589 586 
3 470 589 593 
3 470 593 482 
3 481 594 588 
3 590 314 591 
3 589 590 593 
3 588 594 592 
3 591 595 590 
3 590 595 593 
3 329 331 591 
3 591 331 598 
3 330 592 335 
3 324 333 336 
3 336 333 335 
3 336 335 597 
3 336 597 596 
3 331 332 598 
3 598 332 334 
3 592 597 335 
3 591 599 595 
3 336 596 334 
3 591 598 599 
3 596 599 334 
3 598 334 599 
3 481 489 594 
3 593 595 482 
3 487 484 491 
3 491 601 490 
3 592 594 597 
3 594 489 490 
3 601 596 597 
3 601 491 596 
3 596 491 599 
3 594 490 597 
3 601 597 490 
3 491 484 599 
3 595 600 482 
3 595 599 600 
3 599 484 600 
3 482 600 486 
3 486 600 484 
